<svg width="40" height="40" viewBox="0 0 40 40" fill="none" xmlns="http://www.w3.org/2000/svg">
<g clip-path="url(#clip0_962_6264)">
<path d="M40 30.8333C40 35.8883 35.8883 40 30.8333 40C25.7783 40 21.6667 35.8883 21.6667 30.8333C21.6667 25.7783 25.7783 21.6667 30.8333 21.6667C35.8883 21.6667 40 25.7783 40 30.8333ZM9.16667 21.6667C4.11167 21.6667 0 25.7783 0 30.8333C0 35.8883 4.11167 40 9.16667 40C14.2217 40 18.3333 35.8883 18.3333 30.8333C18.3333 25.7783 14.2217 21.6667 9.16667 21.6667ZM33.3333 6.66667V4.16667C33.3333 1.865 31.4683 0 29.1667 0C26.865 0 25 1.865 25 4.16667V6.66667H33.3333ZM31.6667 10H8.33333C3.73167 10 0 13.7317 0 18.3333V22.3633C2.285 19.8917 5.54333 18.3333 9.16667 18.3333C12.79 18.3333 16.0483 19.8917 18.3333 22.3633V16.6667C18.3333 15.7483 19.0817 15 20 15C20.9183 15 21.6667 15.7483 21.6667 16.6667V22.3633C23.9517 19.8917 27.21 18.3333 30.8333 18.3333C34.4567 18.3333 37.715 19.8917 40 22.3633V18.3333C40 13.7317 36.2683 10 31.6667 10ZM15 6.66667V4.16667C15 1.865 13.135 0 10.8333 0H10.82C8.51833 0 6.63 1.88333 6.62333 4.18333L6.61667 6.66667H15Z" fill="#F98A34"/>
</g>
<defs>
<clipPath id="clip0_962_6264">
<rect width="40" height="40" fill="white"/>
</clipPath>
</defs>
</svg>
