<svg xmlns="http://www.w3.org/2000/svg" data-name="Layer 2" viewBox="0 0 64 80" x="0px" y="0px"><defs><style>
      .cls-1 {
        stroke-width: 0px;
      }
    </style></defs>
    <path class="cls-1" d="M51,33.4c-2.81,0-5.1,2.29-5.1,5.1,0,.46.06.88.16,1.27.58,2.26,2.61,3.83,4.94,3.83s4.36-1.57,4.93-3.81c.11-.41.17-.83.17-1.29,0-2.81-2.29-5.1-5.1-5.1ZM48.97,39.02c-.05-.15-.07-.33-.07-.52,0-1.16.94-2.1,2.1-2.1s2.1.94,2.1,2.1c0,.19-.02.37-.07.54-.23.91-1.07,1.56-2.03,1.56s-1.8-.65-2.03-1.58ZM11,33.4c-2.81,0-5.1,2.29-5.1,5.1,0,.39.05.78.14,1.16.54,2.32,2.58,3.94,4.96,3.94s4.36-1.57,4.93-3.81c.11-.41.17-.83.17-1.29,0-2.81-2.29-5.1-5.1-5.1ZM8.96,38.98c-.04-.16-.06-.32-.06-.48,0-1.16.94-2.1,2.1-2.1s2.1.94,2.1,2.1c0,.19-.02.37-.07.54-.23.91-1.07,1.56-2.03,1.56s-1.82-.67-2.04-1.62ZM3.28,28.18c.03-.17.04-.69.18-.78.82-.03,1.61.55,2.32,1.15.13.11.03.33-.14.33h-2.22c-.35-.05-.14-.47-.13-.7ZM56.28,29.11c-.04-.06-.04-.14,0-.2.04-.06.1-.1.18-.1h4.21c.08,0,.14.04.18.11,0,.02.02.03.02.05.13.4.24.88.34,1.42,0,.01,0,.02,0,.04,0,.01,0,.07,0,.08,0,.11-.09.2-.2.2-.1,0-.19,0-.29,0-2.19,0-3.8-.58-4.44-1.6ZM11.81,25.46s-.07-.12-.05-.19c.02-.07.07-.12.13-.14l2.24-.75c.16-.05.34-.1.53-.15.23-.08.77-.21.6.22-.65.95-.65,1.38-.65,1.55v.68c0,.06-.03.12-.08.16-.03.03-.08.04-.12.04-.02,0-.04,0-.06,0-1.39-.45-2.15-1.01-2.53-1.41ZM60.97,38.4c-.12-.01-.23-.08-.3-.17-.07-.1-.09-.24-.05-.36h0c.09-.27.86-2.75.86-5.19,0-.32-.02-.65-.05-1.01-.01-.11-.08-.17-.21-.18-.15.01-.28.01-.45,0-2.55,0-4.25-.41-5.05-1.22l-1-1c-.12-.11-.15-.28-.08-.43.03-.07.09-.13.19-.19.07-.04.11-.13.1-.21-.02-.08-.08-.15-.17-.16-3.72-.59-6.26-.88-7.76-.88-.06,0-.13-.02-.2-.06-.01,0-.08-.04-.18-.1-2.75-1.49-9.48-5.05-12.72-5.86-3.05-.77-10.92-.34-15.15-.11-1.33.07-2.28.12-2.75.12-1.72,0-7.68,2.5-11.67,5.15-.13.08-.11.29.03.35,1.15.53,2.78,2.32,1.64,2.5,0,0-2.72,0-2.72,0-.1,0-.19.08-.2.18-.36,4.11.22,6.9.28,7.21,0,.03.02.05.03.07.1.13.46.62,1.03,1.14.37.21.34-.25.36-.48.09-1.01.19-1.92.31-2.77.22-1.66,1.65-2.91,3.32-2.91.11,0,.22,0,.34.02l4.33.44c1.92.19,3.43,1.66,3.68,3.58l.44,3.54c.01.1.1.18.2.18h27.05c.11,0,.2-.08.2-.19.02-.46.06-.91.1-1.37,0-.14.02-.28.02-.42,0-.14.01-.27.02-.41.09-.99.18-1.74.29-2.45.22-1.66,1.65-2.91,3.32-2.91.11,0,.22,0,.34.02l4.33.44c1.92.19,3.43,1.66,3.68,3.58l.43,3.45c0,.06.04.1.08.14.05.03.1.04.16.03l3.55-.71c.1-.02.16-.11.16-.2,0-.1-.08-.18-.18-.19ZM10.57,25.26h.09s0-.04-.01-.06c-.01-.03-.02-.06-.04-.09-.04-.14,0-.28.1-.39.02,0,.04-.02.05-.03.04-.03.07-.06.11-.07,0,0,1.06-.35,2.88-.96l.12-.04h0s.02,0,.03-.01c.17-.05.37-.1.52-.15.48-.09,1.01-.21,1.51-.27,2.16-.31,5.4-.5,9.9-.56.03,0,.07-.01.1-.03.05,0,.1,0,.14.01.02,0,.04.01.07.01,2.06-.03,4.07-.03,5.85-.03,5.17,0,12.16,5.02,12.23,5.07.14.1.2.28.15.45h0c-.05.17-.21.28-.38.28h-24c-1.93,0-3.64-.18-5.11-.54-.03,0-.05-.01-.07-.02-.03,0-.06-.02-.07-.02-2.93-.76-3.82-2.04-4.07-2.56h-.11ZM15.4,27v-1c0-.29.34-.98,1.28-2.06.03-.04.08-.06.13-.07,2.04-.24,4.89-.38,8.71-.44h0c.1,0,.18.07.2.16l.75,3.77c.01.06,0,.12-.04.17-.04.05-.09.07-.15.07h-6.27c-1.69,0-3.18-.14-4.44-.4-.09-.02-.16-.1-.16-.2ZM27.29,27.44l-.75-3.78c-.01-.06,0-.12.04-.17.04-.05.09-.07.15-.07,1.85-.02,3.67-.02,5.26-.02,3.38,0,7.77,2.4,10.08,3.83.08.05.11.14.09.22s-.1.15-.19.15h-14.49c-.1,0-.18-.07-.2-.16Z"/>
    <text x="0" y="79" fill="#000000" font-size="5px" font-weight="bold" font-family="'Helvetica Neue', Helvetica, Arial-Unicode, Arial, Sans-serif">Created by bastian vieri</text><text x="0" y="84" fill="#000000" font-size="5px" font-weight="bold" font-family="'Helvetica Neue', Helvetica, Arial-Unicode, Arial, Sans-serif">from the Noun Project</text></svg>