<svg xmlns="http://www.w3.org/2000/svg" version="1.1" viewBox="-5.0 -10.0 110.0 135.0">
 <path d="m95 57.297v-1.5664l-0.73047-0.72266v-11.879s-0.77344-13.355-6.5273-13.355l-44.387-0.003907h-5.2617c-1.7266 0-6.1914 0-10.609 3.5156l-13.695 10.867s-4.8984 2.8672-6.1445 4.2617c-0.92969 1.043-2.6445 4.9219-2.6445 4.9219l0.011719 2.3984 0.027343 5.9336s-0.41797 1.5625 1.5625 1.5625h7.5117 0.30469c0.011719-0.4375 0.042969-0.98047 0.09375-1.3047l0.72656-2.3984c1.3984-2.9766 4.4219-5.043 7.9219-5.043 4.6953 0 8.5391 4.082 8.7383 8.7461l0.007812 0.625h34.098l0.007813-0.625c0.19922-4.6641 4.0391-8.7461 8.7344-8.7461 4.6953 0 8.5391 4.082 8.7383 8.7461h10.789l0.57422-1.8164-0.57422-2.5547v-1.4531zm-82.039-4.1172h-4.8516c0.22656-0.50391 0.97266-2.1328 1.6836-3.4023h3.168c0.9375 0 1.6992 0.76172 1.6992 1.6992s-0.76172 1.7031-1.6992 1.7031zm27.105-5.2031-3.3164 0.015626c-0.14844 0-0.26562-0.16016-0.26562-0.35547 0-0.19922 0.11719-0.35938 0.26562-0.36328l3.3203-0.015626c0.14844 0 0.26563 0.16016 0.26563 0.35938 0 0.19531-0.12109 0.35937-0.26953 0.35937zm0.6875-3.9219h-18.988s0.082031-1.7891 0.63281-3.2344c0.875-0.87109 2.418-2.0625 4.5508-3.9297 5.4688-4.7812 13.805-4.1797 13.805-4.1797zm7.5781 3.9219-3.3164 0.015626c-0.14844 0-0.26562-0.16016-0.26562-0.35547 0-0.19922 0.11719-0.35938 0.26562-0.36328l3.3203-0.015626c0.14844 0 0.26562 0.16016 0.26562 0.35938 0 0.19531-0.12109 0.35937-0.26953 0.35937zm40.934-3.9219h-46.031v-11.367h42.938c1.707 0 3.0938 1.3867 3.0938 3.0977z"/>
 <path d="m23.156 56.23c-3.8672 0-7 3.1328-7 7 0 3.8672 3.1328 7 7 7 3.8633 0 7-3.1328 7-7 0-3.8672-3.1367-7-7-7zm0 11.082c-2.25 0-4.082-1.832-4.082-4.0859 0-2.25 1.832-4.082 4.082-4.082s4.082 1.832 4.082 4.082c0 2.2539-1.832 4.0859-4.082 4.0859z"/>
 <path d="m24.656 63.227c0 0.82813-0.67188 1.5-1.5 1.5s-1.5-0.67187-1.5-1.5c0-0.82812 0.67188-1.5 1.5-1.5s1.5 0.67578 1.5 1.5z"/>
 <path d="m74.742 56.23c-3.8672 0-7 3.1328-7 7 0 3.8672 3.1328 7 7 7 3.8672 0 7-3.1328 7-7 0.003906-3.8672-3.1328-7-7-7zm0 11.082c-2.25 0-4.082-1.832-4.082-4.0859 0-2.25 1.832-4.082 4.082-4.082s4.082 1.832 4.082 4.082c0.003906 2.2539-1.8281 4.0859-4.082 4.0859z"/>
 <path d="m76.242 63.227c0 0.82813-0.67188 1.5-1.5 1.5-0.82813 0-1.5-0.67187-1.5-1.5 0-0.82812 0.67187-1.5 1.5-1.5 0.82812 0 1.5 0.67578 1.5 1.5z"/>
<text x="0.0" y="117.5" font-size="5.0" font-weight="bold" font-family="Arbeit Regular, Helvetica, Arial-Unicode, Arial, Sans-serif" fill="#000000">Created by fajri fathul</text><text x="0.0" y="122.5" font-size="5.0" font-weight="bold" font-family="Arbeit Regular, Helvetica, Arial-Unicode, Arial, Sans-serif" fill="#000000">from Noun Project</text></svg>