<svg xmlns="http://www.w3.org/2000/svg" version="1.1" viewBox="-5.0 -10.0 110.0 135.0">
 <path d="m79.859 55.609c-3.8125 0-6.9062 3.0938-6.9062 6.9062s3.0938 6.9062 6.9062 6.9062 6.9062-3.0938 6.9062-6.9062-3.0938-6.9062-6.9062-6.9062zm-57.34 0c-3.8125 0-6.9062 3.0938-6.9062 6.9062s3.0938 6.9062 6.9062 6.9062 6.9062-3.0938 6.9062-6.9062-3.0938-6.9062-6.9062-6.9062zm-8.0469 4.543c0.23828 0.042968 0.47266-0.09375 0.55469-0.32422 1.1016-3.0703 4.043-5.2695 7.4922-5.2695 4.3906 0 7.957 3.5664 7.957 7.957 0 0.27734 0.22266 0.5 0.5 0.5h39.336l1.0977-0.019531c0.27344-0.003906 0.49219-0.22656 0.49219-0.5 0.007812-4.3828 3.5703-7.9414 7.957-7.9414 4.293 0 7.7969 3.4102 7.9531 7.6641 0.007812 0.27344 0.23438 0.48438 0.50781 0.48047l1.4219-0.023438c0.058593 0 0.11719-0.011719 0.17187-0.035156l4.0195-1.5742c0.19141-0.074218 0.31641-0.25781 0.31641-0.46484v-7.9141c0-0.16406-0.078125-0.31641-0.21094-0.41016l-1.1328-0.79688v-3.6875c0-0.09375-0.027344-0.18359-0.074219-0.26562l-1.9375-3.1055c-0.089843-0.14844-0.25-0.23438-0.42578-0.23438h-20.289l-12.176-11.758c-0.09375-0.089844-0.21875-0.14063-0.34766-0.14063h-10.914l-7.832-1.7812c-0.035156-0.007812-0.074218-0.011718-0.10938-0.011718h-30.43c-0.18359 0-0.35547 0.10156-0.44141 0.26562-0.085938 0.16406-0.078126 0.35938 0.027343 0.51562l1.2344 1.8242c-0.39844 1.2539-2.3125 7.3086-3.1289 10.262-0.24609 0.89453-0.39062 1.5273-0.39062 1.7109v14.461c0 0.27734 0.22266 0.5 0.5 0.5h7.6445l0.66016 0.11328zm40.727-25.703c-0.09375-0.089844-0.21875-0.14062-0.34375-0.14062h-7.3008c-0.27734 0-0.5 0.22266-0.5 0.5v9.6562c0 0.27734 0.22266 0.5 0.5 0.5h17.379c0.20312 0 0.38672-0.125 0.46484-0.3125 0.074218-0.1875 0.03125-0.40625-0.11719-0.54688l-10.078-9.6562zm-10.664 0.35938c0-0.27734-0.22266-0.5-0.5-0.5h-30.672c-0.23047 0-0.42969 0.15625-0.48438 0.37891l-2.4297 9.6562c-0.039063 0.14844-0.003907 0.30859 0.089843 0.42969 0.09375 0.12109 0.23828 0.19141 0.39453 0.19141h33.102c0.27734 0 0.5-0.22266 0.5-0.5z" fill-rule="evenodd"/>
<text x="0.0" y="117.5" font-size="5.0" font-weight="bold" font-family="Arbeit Regular, Helvetica, Arial-Unicode, Arial, Sans-serif" fill="#000000">Created by Agan24</text><text x="0.0" y="122.5" font-size="5.0" font-weight="bold" font-family="Arbeit Regular, Helvetica, Arial-Unicode, Arial, Sans-serif" fill="#000000">from Noun Project</text></svg>