<svg xmlns="http://www.w3.org/2000/svg" version="1.1" viewBox="-5.0 -10.0 110.0 135.0">
 <path d="m94.215 57.832-0.23438 0.007813c-0.007813-2.2656-0.019531-4.6445-0.019531-4.7852 0-0.27344-0.45703-1.0547-0.45703-1.0547v-0.011719l0.12109-0.003906c0.050781 0 0.089844-0.042969 0.089844-0.089844v-4.8164c0-0.050781-0.042969-0.089844-0.089844-0.089844h-0.51562c-0.10156-0.84375-0.22656-1.8047-0.38281-2.8984-0.82422-5.7227-2.2227-10.844-3.7773-11.988-1.8047-1.3242-17.492-1.375-30.223-1.375-12.73 0-20.156 0.48047-23.82 1.5352-0.42969 0.125-0.95703 0.375-1.5547 0.72266-0.011718 0-0.023437-0.003906-0.023437-0.003906-0.023437 0.007812-2.2461 0.85938-7.2695 5.0039-3.7188 3.0664-5.8672 4.7383-6.6133 5.3125-0.27344-0.023437-0.36719-0.039063-0.36719-0.039063l-0.39453 0.22266s0.023437 0.003906 0.070312 0.007812c-0.45312-0.046875-0.73047-0.085937-0.73047-0.085937s-9.9844 4.3516-10.441 5.2188c-0.074219 0.14062-0.14453 0.34375-0.21094 0.57812-0.14453 0.11719-0.24609 0.28516-0.26953 0.48047l-0.34375 2.9688s-0.16016-0.023438-0.82422 0.64062c-0.34375 0.34375-0.44141 2.3906-0.39844 4.4102-0.26953 0.050781-0.44922 0.11328-0.46484 0.19531-0.089843 0.44531-0.1875 3.9375 0.45313 4.3477 1.0195 0.64453 6.1328 0.78516 6.1328 0.78516 0.17969 0.015625 0.34375 0.027344 0.5 0.039062 0.011719 0 0.023438 0 0.035156 0.003906 0.3125 0.023438 0.57422 0.039063 0.75781 0.050782h0.019531c0.082031 0.003906 0.14844 0.007812 0.19531 0.011718 0.027344 0 0.035157 0.003907 0.050782 0.003907 0.027344 0 0.046875 0.003906 0.046875 0.003906s-0.78906-9.1992 8.2773-9.1992c9.0664 0 8.2539 9.0156 8.2539 9.0156h39.121s-1.0977-9.2969 7.875-9.2969c6.0781 0 7.4727 4.2617 7.7383 7.0156v2.2812l9.2305-0.86328c0.33594-0.03125 0.61328-0.28125 0.67969-0.60938l0.55078-2.7344c0.09375-0.48438-0.28125-0.93359-0.77344-0.91797zm-49.484-9.0391h-1.1875c-0.15234 0.40625-0.53906 0.69531-0.99609 0.69531s-0.84375-0.28906-0.99609-0.69531h-0.90234c-0.19531 0-0.35547-0.16016-0.35547-0.35547s0.16016-0.35547 0.35547-0.35547h0.89453c0.14453-0.41797 0.53516-0.72266 1.0039-0.72266s0.85938 0.30469 1.0039 0.72266h1.1758c0.19531 0 0.35547 0.16016 0.35547 0.35547 0.003907 0.19531-0.15234 0.35547-0.35156 0.35547zm0.44141-5.1289c-0.011719 0.21875-0.19141 0.38672-0.41016 0.39063l-17.605 0.33203v-1.7227l5.543-5.6953c1.7188-1.7188 4.0156-2.7383 6.4453-2.8555l6.6328-0.32422zm9.1211 5.1289h-1.1875c-0.15234 0.40625-0.53906 0.69531-0.99609 0.69531s-0.84375-0.28906-0.99609-0.69531h-0.90234c-0.19531 0-0.35547-0.16016-0.35547-0.35547s0.16016-0.35547 0.35547-0.35547h0.89453c0.14453-0.41797 0.53516-0.72266 1.0039-0.72266s0.85938 0.30469 1.0039 0.72266h1.1758c0.19531 0 0.35547 0.16016 0.35547 0.35547 0.003907 0.19531-0.15234 0.35547-0.35156 0.35547z"/>
 <path d="m28.516 61.828c-0.007813-0.10156-0.019531-0.20312-0.03125-0.30859l0.019531-0.003906-0.15625-0.90234-0.015625 0.003907c-0.023437-0.097657-0.058593-0.19531-0.085937-0.29688l0.023437-0.007812-0.3125-0.85938-0.019531 0.007813c-0.042969-0.09375-0.078125-0.19141-0.125-0.28125l0.015625-0.007813-0.45703-0.79297-0.019532 0.011719c-0.058593-0.085937-0.11328-0.17188-0.17578-0.25391l0.015625-0.011719-0.58594-0.69922-0.011719 0.019531c-0.070312-0.074218-0.14453-0.14453-0.21875-0.21484l0.015625-0.015625-0.69922-0.58984-0.007812 0.011719c-0.082032-0.0625-0.17188-0.11328-0.25781-0.17188l0.011719-0.019532-0.79297-0.45703-0.007812 0.019531c-0.09375-0.046874-0.18359-0.089843-0.27734-0.12891l0.007813-0.019531-0.85938-0.3125-0.007812 0.019531c-0.097656-0.027344-0.19531-0.0625-0.29688-0.085937l0.003906-0.015625-0.89844-0.16016-0.003906 0.019531c-0.10156-0.011719-0.20313-0.023438-0.30859-0.03125v-0.015625h-0.91406v0.019531c-0.10156 0.007813-0.20312 0.019531-0.30859 0.03125l-0.003907-0.019531-0.89844 0.15625 0.003906 0.015625c-0.097656 0.023437-0.19922 0.058593-0.29688 0.085937v-0.023437l-0.85938 0.3125 0.007812 0.019531c-0.09375 0.042969-0.19141 0.078125-0.28125 0.125l-0.007812-0.015625-0.79297 0.45703 0.011719 0.019532c-0.085938 0.058593-0.17188 0.11328-0.25391 0.17578l-0.011719-0.015625-0.70312 0.58594 0.011719 0.011719c-0.074219 0.070312-0.14453 0.14453-0.21484 0.21875l-0.015625-0.015625-0.58984 0.69922 0.011719 0.007812c-0.0625 0.082032-0.11328 0.17188-0.17188 0.25781l-0.019531-0.011719-0.45703 0.79297 0.019531 0.007812c-0.046875 0.09375-0.089844 0.18359-0.12891 0.27734l-0.019531-0.007813-0.3125 0.85938 0.023438 0.007812c-0.027344 0.097656-0.0625 0.19531-0.085938 0.29688l-0.015625-0.003906-0.16016 0.89844 0.019531 0.003906c-0.011719 0.10156-0.023437 0.20313-0.03125 0.30859h-0.019531v0.91016h0.019531c0.007813 0.10156 0.019531 0.20313 0.03125 0.30859l-0.019531 0.003906 0.15625 0.90234 0.015625-0.003906c0.023437 0.097656 0.058594 0.19922 0.085937 0.29688l-0.023437 0.007813 0.3125 0.85937 0.019531-0.007812c0.042969 0.09375 0.078125 0.19141 0.125 0.28125l-0.015625 0.007812 0.45703 0.79297 0.019532-0.011719c0.058594 0.085938 0.11328 0.17188 0.17578 0.25391l-0.015625 0.011719 0.58594 0.70312 0.011718-0.011718c0.070313 0.074218 0.14453 0.14453 0.21875 0.21484l-0.015625 0.015624 0.69922 0.58984 0.007812-0.011718c0.082032 0.0625 0.17188 0.11328 0.25781 0.17187l-0.011719 0.019532 0.79297 0.45703 0.007813-0.019531c0.09375 0.046875 0.18359 0.089844 0.27734 0.12891l-0.007812 0.019531 0.85938 0.3125 0.007812-0.019531c0.097656 0.027344 0.19531 0.0625 0.29688 0.085938l-0.003906 0.015624 0.90234 0.16016 0.003906-0.019531c0.10156 0.011718 0.20312 0.023437 0.30469 0.03125v0.015624h0.91406v-0.019531c0.10156-0.007812 0.20312-0.019531 0.30859-0.03125l0.003906 0.019531 0.90234-0.15625-0.003907-0.015624c0.097657-0.023438 0.19531-0.058594 0.29688-0.085938l0.007812 0.023438 0.85938-0.3125-0.007813-0.019532c0.09375-0.042968 0.19141-0.078125 0.28125-0.125l0.007813 0.015625 0.79297-0.45703-0.011719-0.019531c0.085937-0.058594 0.17188-0.11328 0.25391-0.17188l0.011719 0.015625 0.69922-0.58594-0.011719-0.011719c0.074219-0.070312 0.14453-0.14453 0.21484-0.21875l0.015625 0.015626 0.58984-0.69922-0.011718-0.007813c0.0625-0.082031 0.11328-0.17188 0.17188-0.25781l0.019531 0.011718 0.45703-0.79297-0.019531-0.007813c0.046875-0.09375 0.089844-0.18359 0.12891-0.27734l0.019532 0.007812 0.3125-0.85938-0.019532-0.007813c0.027344-0.097656 0.0625-0.19531 0.085938-0.29687l0.015625 0.003906 0.16016-0.89844-0.019531-0.003906c0.011718-0.10156 0.023437-0.20312 0.03125-0.30859h0.015625v-0.91406zm-3.6172 3.7773c-0.47656 0.48438-1.0703 0.875-1.75 1.1211-0.66406 0.24219-1.3477 0.32031-2.0078 0.26563-0.14453-0.011719-0.25-0.13281-0.25391-0.27734-0.007813-0.69922 0.125-1.5625 0.42969-2.8398 0.03125-0.13281 0.097656-0.37891 0.17188-0.63281 0.089844-0.32422 0.47266-0.46484 0.75391-0.27344 0.22266 0.15234 0.42969 0.29688 0.54297 0.37891 1.0391 0.77344 1.6914 1.3477 2.1328 1.8828 0.085937 0.11328 0.082031 0.27344-0.019531 0.375zm-5.7656-7.4062c0.125-0.074219 0.28125-0.035157 0.36328 0.078125 0.39844 0.55469 0.78516 1.3164 1.2695 2.4766 0.050781 0.125 0.14062 0.36328 0.23438 0.61328 0.11719 0.31641-0.10938 0.65234-0.44922 0.66406-0.26953 0.007812-0.52344 0.011719-0.66016 0.011719-1.2812-0.015625-2.1445-0.097657-2.8125-0.26562-0.14062-0.035156-0.23047-0.17188-0.20703-0.31641 0.23828-1.3398 1.0469-2.5469 2.2617-3.2617zm1.6953-0.60156c1.3789-0.20703 2.7617 0.21484 3.7891 1.0938 0.10937 0.09375 0.12891 0.25781 0.039062 0.375-0.40625 0.54688-1.0078 1.1484-1.957 1.9609-0.10156 0.089844-0.30078 0.24609-0.51172 0.41406-0.26562 0.21094-0.65625 0.097656-0.76953-0.22266-0.089844-0.25391-0.17578-0.49609-0.21484-0.625-0.37109-1.1914-0.5625-2.0234-0.61328-2.7031-0.003906-0.14062 0.097656-0.27344 0.23828-0.29297zm0.71875 4.6289m-4.4648 1.6641c-0.070312-0.19531-0.12891-0.39453-0.17188-0.59375-0.03125-0.13672 0.050782-0.27734 0.1875-0.32031 0.66016-0.21875 1.5156-0.35937 2.8086-0.46094 0.13672-0.011719 0.39062-0.023437 0.65625-0.035156 0.33594-0.011719 0.58594 0.30859 0.49219 0.63281-0.074219 0.25781-0.14844 0.50391-0.19531 0.63281-0.41797 1.2422-0.76953 2.043-1.1445 2.6328-0.078125 0.12109-0.23438 0.16406-0.35938 0.097656-1.0195-0.52734-1.8516-1.4258-2.2734-2.5859zm5.9609-0.93359c-0.11719-0.070312-0.32812-0.21094-0.55078-0.35938-0.28125-0.1875-0.29297-0.59375-0.027344-0.80078 0.21094-0.16406 0.41797-0.31641 0.52734-0.39844 1.0234-0.72656 1.7578-1.1641 2.3906-1.4219 0.13281-0.054687 0.28516 0 0.35156 0.125 0.09375 0.17969 0.17578 0.36328 0.24609 0.55859 0.41797 1.1484 0.35938 2.3594-0.074219 3.4102-0.054688 0.13281-0.20312 0.19922-0.34375 0.15625-0.65234-0.21094-1.4258-0.60156-2.5195-1.2695z"/>
 <path d="m83.785 61.828c-0.007812-0.10156-0.019531-0.20312-0.03125-0.30859l0.019532-0.003906-0.15625-0.90234-0.015626 0.003907c-0.023437-0.097657-0.058593-0.19531-0.085937-0.29688l0.023437-0.007812-0.3125-0.85938-0.019531 0.007813c-0.042969-0.09375-0.078125-0.19141-0.125-0.28125l0.015625-0.007813-0.45703-0.79297-0.015625 0.023438c-0.058594-0.085938-0.11328-0.17188-0.17578-0.25391l0.015625-0.011719-0.58594-0.69922-0.011718 0.011719c-0.070313-0.074219-0.14453-0.14453-0.21875-0.21484l0.015624-0.015625-0.69922-0.58984-0.007813 0.011719c-0.082031-0.0625-0.17188-0.11328-0.25781-0.17188l0.011719-0.019531-0.79297-0.45703-0.007813 0.019531c-0.09375-0.046875-0.18359-0.089844-0.27734-0.12891l0.007813-0.019531-0.85938-0.3125-0.007812 0.019531c-0.097657-0.027343-0.19531-0.0625-0.29688-0.085937v-0.019531l-0.89844-0.16016-0.003906 0.019531c-0.10156-0.011719-0.20312-0.023438-0.30859-0.03125v-0.015625h-0.91406v0.019531c-0.10156 0.007813-0.20312 0.019531-0.30859 0.03125l-0.003907-0.019531-0.89844 0.15625 0.003906 0.015625c-0.097656 0.023437-0.19922 0.058593-0.29688 0.085937v-0.023437l-0.85938 0.3125 0.007813 0.019531c-0.09375 0.042969-0.19141 0.078125-0.28125 0.125l-0.007813-0.015625-0.79297 0.45703 0.011719 0.019532c-0.085937 0.058593-0.17188 0.11328-0.25391 0.17578l-0.011719-0.015625-0.70312 0.58594 0.011719 0.011719c-0.074219 0.070312-0.14453 0.14453-0.21484 0.21875l-0.015625-0.015625-0.58984 0.69922 0.011718 0.007812c-0.0625 0.082032-0.11328 0.17188-0.17188 0.25781l-0.019531-0.011719-0.45703 0.79297 0.019531 0.007812c-0.046875 0.09375-0.089844 0.18359-0.12891 0.27734l-0.019532-0.007813-0.3125 0.85938 0.023438 0.007812c-0.027344 0.097656-0.0625 0.19531-0.085938 0.29688l-0.015624-0.003906-0.16016 0.89844 0.019531 0.003906c-0.011718 0.10156-0.023437 0.20313-0.03125 0.30859h-0.019531v0.91406h0.019531c0.007813 0.10156 0.019532 0.20312 0.03125 0.30859l-0.019531 0.003907 0.15625 0.90234 0.015625-0.003906c0.023438 0.097656 0.058594 0.19922 0.085938 0.29688l-0.023438 0.007813 0.3125 0.85938 0.019532-0.007813c0.042968 0.09375 0.078124 0.19141 0.125 0.28125l-0.015626 0.007813 0.45703 0.79297 0.019531-0.011719c0.058594 0.085937 0.11328 0.17188 0.17578 0.25391l-0.015625 0.011719 0.58594 0.70312 0.011719-0.011719c0.070312 0.074219 0.14453 0.14453 0.21875 0.21484l-0.015626 0.015625 0.69922 0.58984 0.007813-0.011718c0.082031 0.0625 0.17188 0.11328 0.25781 0.17188l-0.011718 0.019531 0.79297 0.45703 0.007813-0.019531c0.09375 0.046875 0.18359 0.089844 0.27734 0.12891l-0.007812 0.019532 0.85938 0.3125 0.007813-0.019532c0.097656 0.027344 0.19531 0.0625 0.29687 0.085938l-0.003906 0.015625 0.90234 0.16016 0.003906-0.019531c0.10156 0.011718 0.20312 0.023437 0.30469 0.03125v0.015625h0.91406v-0.019531c0.10156-0.007813 0.20312-0.019532 0.30859-0.03125l0.003906 0.019531 0.90234-0.15625-0.003906-0.015625c0.097656-0.023438 0.19531-0.058594 0.29688-0.085938l0.007812 0.023438 0.85938-0.3125-0.007812-0.019532c0.09375-0.042968 0.19141-0.078124 0.28125-0.125l0.007812 0.015626 0.79297-0.45703-0.011719-0.019531c0.085938-0.058594 0.17188-0.11328 0.25391-0.17188l0.011719 0.015625 0.69922-0.58594-0.011719-0.011719c0.074219-0.070313 0.14453-0.14453 0.21484-0.21875l0.015625 0.015625 0.58984-0.69922-0.023438-0.03125c0.0625-0.082031 0.11328-0.17188 0.17188-0.25781l0.019531 0.011719 0.45703-0.79297-0.019532-0.007812c0.046876-0.09375 0.089844-0.18359 0.12891-0.27734l0.019531 0.007813 0.3125-0.85938-0.019531-0.007813c0.027343-0.097656 0.0625-0.19531 0.085937-0.29688l0.015625 0.003906 0.16016-0.89844-0.019532-0.003906c0.011719-0.10156 0.023438-0.20312 0.03125-0.30859h0.015625v-0.91406zm-3.6172 3.7773c-0.47656 0.48438-1.0703 0.875-1.75 1.1211-0.66406 0.24219-1.3477 0.32031-2.0078 0.26563-0.14453-0.011719-0.25-0.13281-0.25391-0.27734-0.007812-0.69922 0.125-1.5625 0.42969-2.8398 0.03125-0.13281 0.097656-0.37891 0.17187-0.63281 0.089844-0.32422 0.47266-0.46484 0.75391-0.27344 0.22266 0.15234 0.42969 0.29688 0.54297 0.37891 1.0391 0.77344 1.6914 1.3477 2.1328 1.8828 0.085938 0.11328 0.082031 0.27344-0.019531 0.375zm-5.7656-7.4062c0.125-0.074219 0.28125-0.035157 0.36328 0.078125 0.39844 0.55469 0.78516 1.3164 1.2695 2.4766 0.050782 0.125 0.14062 0.36328 0.23438 0.61328 0.11719 0.31641-0.10938 0.65234-0.44922 0.66406-0.26953 0.007812-0.52344 0.011719-0.66016 0.011719-1.2812-0.015625-2.1445-0.097657-2.8125-0.26562-0.14062-0.035156-0.23047-0.17188-0.20703-0.31641 0.23828-1.3398 1.0508-2.5469 2.2617-3.2617zm1.6992-0.60156c1.3789-0.20703 2.7617 0.21484 3.7891 1.0938 0.10938 0.09375 0.12891 0.25781 0.039063 0.375-0.40625 0.54688-1.0078 1.1484-1.957 1.9609-0.10156 0.089844-0.30078 0.24609-0.51172 0.41406-0.26563 0.21094-0.65625 0.097656-0.76953-0.22266-0.089844-0.25391-0.17578-0.49609-0.21484-0.625-0.37109-1.1914-0.5625-2.0234-0.61328-2.7031-0.007812-0.14062 0.09375-0.27344 0.23828-0.29297zm0.71875 4.6289h-0.003906zm-4.4688 1.6641c-0.070312-0.19531-0.12891-0.39453-0.17187-0.59375-0.03125-0.13672 0.050781-0.27734 0.1875-0.32031 0.66016-0.21875 1.5156-0.35937 2.8086-0.46094 0.13672-0.011719 0.39062-0.023437 0.65625-0.035156 0.33594-0.011719 0.58594 0.30859 0.49219 0.63281-0.074219 0.25781-0.14844 0.50391-0.19531 0.63281-0.41797 1.2422-0.76953 2.043-1.1445 2.6328-0.078125 0.12109-0.23438 0.16406-0.35938 0.097656-1.0195-0.52734-1.8516-1.4258-2.2734-2.5859zm5.9648-0.93359c-0.11719-0.070312-0.32812-0.21094-0.55078-0.35938-0.28125-0.1875-0.29297-0.59375-0.027344-0.80078 0.21094-0.16406 0.41797-0.31641 0.52734-0.39844 1.0234-0.72656 1.7578-1.1641 2.3906-1.4219 0.13281-0.054687 0.28516 0 0.35156 0.125 0.09375 0.17969 0.17578 0.36328 0.24609 0.55859 0.41797 1.1484 0.35938 2.3594-0.074218 3.4102-0.054688 0.13281-0.20313 0.19922-0.34375 0.15625-0.65625-0.21094-1.4297-0.60156-2.5195-1.2695z"/>
<text x="0.0" y="117.5" font-size="5.0" font-weight="bold" font-family="Arbeit Regular, Helvetica, Arial-Unicode, Arial, Sans-serif" fill="#000000">Created by fajri fathul</text><text x="0.0" y="122.5" font-size="5.0" font-weight="bold" font-family="Arbeit Regular, Helvetica, Arial-Unicode, Arial, Sans-serif" fill="#000000">from Noun Project</text></svg>