<svg xmlns="http://www.w3.org/2000/svg" xmlns:xlink="http://www.w3.org/1999/xlink" xmlns:serif="http://www.serif.com/" viewBox="0 0 417 521.25" version="1.1" xml:space="preserve" style="" x="0px" y="0px" fill-rule="evenodd" clip-rule="evenodd" stroke-linejoin="round" stroke-miterlimit="2"><rect serif:id="Page 2" x="0" y="0" width="416.667" height="416.667" style="" fill="none"/>
<path d="M320.462,223.355c-15.326,0 -27.769,12.443 -27.769,27.77c-0,15.326 12.443,27.769 27.769,27.769c15.326,-0 27.77,-12.443 27.77,-27.769c-0,-15.327 -12.444,-27.77 -27.77,-27.77Zm-245.999,0c-15.326,0 -27.769,12.443 -27.769,27.77c-0,15.326 12.443,27.769 27.769,27.769c15.326,-0 27.769,-12.443 27.769,-27.769c0,-15.327 -12.443,-27.77 -27.769,-27.77Zm245.999,4.167c13.027,-0 23.603,10.576 23.603,23.603c-0,13.026 -10.576,23.602 -23.603,23.602c-13.027,0 -23.603,-10.576 -23.603,-23.602c0,-13.027 10.576,-23.603 23.603,-23.603Zm-245.999,-0c13.027,-0 23.603,10.576 23.603,23.603c-0,13.026 -10.576,23.602 -23.603,23.602c-13.027,0 -23.603,-10.576 -23.603,-23.602c0,-13.027 10.576,-23.603 23.603,-23.603Zm279.588,29.737c-0.564,-0.023 -1.097,-0.274 -1.474,-0.699c-0.396,-0.445 -0.581,-1.039 -0.511,-1.63c0.149,-1.247 0.226,-2.517 0.226,-3.805c-0,-17.568 -14.263,-31.83 -31.83,-31.83c-17.567,-0 -31.829,14.262 -31.829,31.83c-0,1.15 -0.933,2.083 -2.084,2.083l-178.173,-0c-1.151,-0 -2.083,-0.933 -2.083,-2.083c-0,-17.568 -14.263,-31.83 -31.83,-31.83c-17.567,-0 -31.829,14.262 -31.829,31.83c-0,1.15 -0.933,2.083 -2.084,2.083l-15.447,-0c-1.151,-0 -2.083,-0.933 -2.083,-2.083l-0,-31.369c-0,-0.345 0.085,-0.685 0.249,-0.989c0,0 8.891,-16.493 8.891,-16.493l0,-27.727c0,-0.445 0.143,-0.878 0.406,-1.236c3.379,-4.585 21.156,-17.251 26.264,-20.844l-2.315,-5.661c-0.251,-0.614 -0.195,-1.311 0.151,-1.877c0.346,-0.565 0.941,-0.932 1.602,-0.988c-0,-0 111.863,-9.422 146.506,-4.976c34.697,4.452 59.991,24.89 88.064,41.892c65.665,9.811 99.872,32.391 99.872,32.391c0.585,0.385 0.937,1.039 0.937,1.74l0,19.112c0,0.245 -0.043,0.488 -0.127,0.718l-7.756,21.146c-0.301,0.82 -1.082,1.366 -1.956,1.366l-27.715,-0c-0,-0 -1.03,-0.012 -1.281,-0.027c-0.351,-0.02 -0.771,-0.044 -0.771,-0.044l0.094,0.002l-0.084,-0.002Zm2.35,-4.096c0.038,-0.674 0.057,-1.354 0.057,-2.038c0,-19.867 -16.129,-35.997 -35.996,-35.997c-19.168,0 -34.856,15.014 -35.937,33.913c0,0 -174.125,0 -174.125,0c-1.081,-18.899 -16.769,-33.913 -35.937,-33.913c-19.168,0 -34.856,15.014 -35.937,33.913l-11.34,0c0,0 0,-28.759 0,-28.759c0,-0 8.891,-16.493 8.891,-16.493c0.164,-0.304 0.25,-0.644 0.25,-0.989l-0,-27.525c4.791,-5.61 26.246,-20.342 26.246,-20.342c0.805,-0.556 1.115,-1.598 0.744,-2.503l-1.869,-4.571c17.53,-1.424 111.62,-8.762 142.796,-4.762c34.235,4.393 59.072,24.795 86.802,41.543c0.237,0.143 0.499,0.237 0.772,0.278c58.563,8.685 91.799,27.648 97.661,31.222c0.001,0.002 0.001,17.59 0.001,17.59c0,0 -7.127,19.433 -7.127,19.433l-25.952,0Zm-177.483,-104.021c-0.587,-0.062 -1.174,0.128 -1.612,0.524c-0.439,0.395 -0.69,0.957 -0.69,1.548l-0,31.044c-0,1.075 0.819,1.974 1.89,2.074c-0,0 70.657,6.592 93.895,7.22c0.878,0.024 1.677,-0.505 1.997,-1.323c0.32,-0.818 0.092,-1.749 -0.569,-2.327c-12.698,-11.111 -37.767,-32.728 -94.911,-38.76Zm1.864,4.397c48.123,5.524 72.409,22.424 85.787,33.616c-24.499,-1.201 -75.366,-5.836 -85.786,-6.797l-0.001,-26.819Zm-84.046,-1.583l-0.056,0.004l-0.109,0.012l-0.067,0.011c-0.186,0.032 -0.364,0.088 -0.529,0.165l-27.682,12.331c-1.525,0.68 -2.427,2.276 -2.221,3.933c0.205,1.656 1.469,2.984 3.114,3.271l27.313,4.757l0.077,0.012l0.045,0.006l63.655,7.243c0.59,0.067 1.181,-0.121 1.623,-0.516c0.443,-0.395 0.696,-0.961 0.696,-1.554l0,-30.417c0,-0.561 -0.226,-1.099 -0.628,-1.491c-0.402,-0.392 -0.945,-0.605 -1.506,-0.592c-25.741,0.628 -63.725,2.825 -63.725,2.825Zm61.693,1.396l-0,25.945c-0,-0 -59.489,-6.769 -59.489,-6.769c0,-0 0,-16.523 0,-16.523c7.828,-0.44 37.459,-2.06 59.489,-2.653l-0,-0Zm-87.323,14.436l23.667,-10.543l0,14.665l-23.667,-4.122Z"/>
<text x="0" y="432" fill="#000000" font-size="5px" font-weight="bold" font-family="'Helvetica Neue', Helvetica, Arial-Unicode, Arial, Sans-serif">Created by Agan24</text><text x="0" y="437" fill="#000000" font-size="5px" font-weight="bold" font-family="'Helvetica Neue', Helvetica, Arial-Unicode, Arial, Sans-serif">from the Noun Project</text></svg>