<svg xmlns="http://www.w3.org/2000/svg" version="1.1" viewBox="-5.0 -10.0 110.0 135.0">
 <path d="m95.258 52.336-2.5039-1.3828 0.066406-7.9766-8.4922-6.4336v-2.3086s-31.195-4.4062-41.812-0.027344c-9.3789 3.8672-12.707 6.9141-13.43 7.6641-2.8203 0.085937-19.723 0.80469-22.055 5.4023l-2.3906 5.5195 2.2578 9.0234 8.8477 0.22656c1.4688 2.4492 4.1406 4.0977 7.1953 4.0977 3.0234 0 5.6719-1.6133 7.1484-4.0195l41.203-0.60938c1.3828 2.7422 4.2188 4.6289 7.4922 4.6289 3.7305 0 6.8984-2.4492 7.9844-5.8242l4.6875-0.91797c0.039063-0.019532 4.0234-1.8555 3.8125-6.7812zm-3.582-8.9766-7.375 0.96875 1.5352-2.3789 3.5703-0.30859zm-83.965 4.8516c0.050781-0.023438 3.8672-1.6523 7.5664-1.9961-1.75 1.3359-4.5039 3.1602-6.1211 3.1602h-0.007812c-0.92188-0.003906-1.5195-0.019531-1.9219-0.039062zm15.23 16.926c-4.0781 0-7.3906-3.3164-7.3906-7.3906 0-4.0742 3.3164-7.3906 7.3906-7.3906 4.0742 0 7.3906 3.3164 7.3906 7.3906 0 4.0742-3.3125 7.3906-7.3906 7.3906zm55.844 0c-4.0781 0-7.3906-3.3164-7.3906-7.3906 0-4.0742 3.3164-7.3906 7.3906-7.3906 4.0742 0 7.3906 3.3164 7.3906 7.3906 0.003907 4.0742-3.3125 7.3906-7.3906 7.3906zm12.312-6.6758-4.0625 0.78516c0.089844-0.48828 0.14062-0.98438 0.14062-1.5 0-4.6289-3.7656-8.3906-8.3906-8.3906-4.6289 0-8.3906 3.7656-8.3906 8.3906 0 0.97266 0.17578 1.9023 0.48047 2.7695l-40.25 0.59375c0.45312-1.0312 0.71094-2.168 0.71094-3.3633 0-4.6289-3.7656-8.3906-8.3906-8.3906-4.6289 0-8.3906 3.7656-8.3906 8.3906 0 1.1641 0.23828 2.2734 0.66797 3.2812l-7.5352-0.19141-1.9883-7.957 1.1094-2.5703c0.45312 0.035156 1.168 0.0625 2.3398 0.066406h0.011718c3.3398-0.0625 8.9414-5.2031 8.9414-5.2031s-4.9141-0.078125-9.293 1.5469c4.5664-3.25 20.738-3.8711 20.738-3.8711s3.0312-3.4648 13.352-7.7227c9.6875-3.9961 36.691-0.53125 40.43-0.027344v1.9336l4.8906 3.707-2.9531 0.25391-2.9727 4.6055 9.5156-1.2461-0.058594 7.1836 2.5312 1.3984c0.023438 3.8008-2.7617 5.3164-3.1836 5.5273z"/>
 <path d="m86.449 40-7.9141-3.9727c-4.3867-0.69922-16.266-1.1289-24.75-1.1289-3.3242 0-5.6992 0.070312-6.6953 0.19922-3.6562 0.47266-16.566 9.1094-16.566 9.1094s3.1953 0.058594 4.082 0.078125c18.062 0.38281 51.844-4.2852 51.844-4.2852zm-52.727 3.2812c3.1211-2.0234 10.781-6.8398 13.492-7.1914 0.95312-0.125 3.2852-0.19141 6.5664-0.19141 8.3984 0 20.117 0.42187 24.52 1.1055l4.7539 2.4023c-7.0234 0.82812-34.844 4.0391-49.332 3.875z"/>
 <path d="m22.941 52.602c-2.8359 0-5.1445 2.3047-5.1445 5.1406 0 2.8359 2.3086 5.1406 5.1445 5.1406 2.8359 0 5.1406-2.3047 5.1406-5.1406 0.003907-2.8359-2.3047-5.1406-5.1406-5.1406zm0 9.2852c-2.2852 0-4.1445-1.8594-4.1445-4.1406 0-2.2852 1.8594-4.1406 4.1445-4.1406s4.1406 1.8594 4.1406 4.1406c0.003907 2.2812-1.8555 4.1406-4.1406 4.1406z"/>
 <path d="m78.785 52.602c-2.8359 0-5.1406 2.3047-5.1406 5.1406 0 2.8359 2.3086 5.1406 5.1406 5.1406 2.8359 0 5.1406-2.3047 5.1406-5.1406 0.003907-2.8359-2.3047-5.1406-5.1406-5.1406zm0 9.2852c-2.2852 0-4.1406-1.8594-4.1406-4.1406 0-2.2852 1.8594-4.1406 4.1406-4.1406 2.2852 0 4.1406 1.8594 4.1406 4.1406 0.003907 2.2812-1.8555 4.1406-4.1406 4.1406z"/>
<text x="0.0" y="117.5" font-size="5.0" font-weight="bold" font-family="Arbeit Regular, Helvetica, Arial-Unicode, Arial, Sans-serif" fill="#000000">Created by yogi rista</text><text x="0.0" y="122.5" font-size="5.0" font-weight="bold" font-family="Arbeit Regular, Helvetica, Arial-Unicode, Arial, Sans-serif" fill="#000000">from Noun Project</text></svg>