<svg xmlns="http://www.w3.org/2000/svg" xmlns:xlink="http://www.w3.org/1999/xlink" xmlns:serif="http://www.serif.com/" viewBox="0 0 417 521.25" version="1.1" xml:space="preserve" style="" x="0px" y="0px" fill-rule="evenodd" clip-rule="evenodd" stroke-linejoin="round" stroke-miterlimit="2"><rect serif:id="Page 3" x="0" y="0" width="416.667" height="416.667" style="" fill="none"/>
<path d="M347.554,223.761c-14.982,0 -27.145,12.163 -27.145,27.145c-0,14.982 12.163,27.145 27.145,27.145c14.981,-0 27.145,-12.163 27.145,-27.145c-0,-14.982 -12.164,-27.145 -27.145,-27.145Zm-227.732,0c-14.982,0 -27.145,12.163 -27.145,27.145c-0,14.982 12.163,27.145 27.145,27.145c14.981,-0 27.145,-12.163 27.145,-27.145c-0,-14.982 -12.164,-27.145 -27.145,-27.145Zm227.732,4.167c12.682,-0 22.978,10.296 22.978,22.978c0,12.682 -10.296,22.978 -22.978,22.978c-12.682,0 -22.979,-10.296 -22.979,-22.978c0,-12.682 10.297,-22.978 22.979,-22.978Zm-227.732,-0c12.682,-0 22.978,10.296 22.978,22.978c0,12.682 -10.296,22.978 -22.978,22.978c-12.682,0 -22.979,-10.296 -22.979,-22.978c0,-12.682 10.297,-22.978 22.979,-22.978Zm34.437,25.061l-1.604,-0.056l0.007,0c-1.033,-0.122 -1.834,-1 -1.835,-2.065c-0.019,-17.094 -13.905,-30.967 -31.005,-30.967c-14.407,-0 -26.532,9.846 -30.005,23.17c-0.24,0.917 -1.068,1.557 -2.016,1.557c-0.168,0 -4.266,-0.258 -4.266,-0.258l-59.181,0c-1.151,0 -2.084,-0.932 -2.084,-2.083l0,-56.298c0,-1.151 0.933,-2.083 2.084,-2.083c-0,-0 116.905,-0 116.905,-0c-0,-0 7.513,-40.569 7.513,-40.569c0.475,-2.566 2.709,-4.431 5.32,-4.441c14.345,-0.051 80.146,-0.28 98.222,-0.28c5.36,-0 10.503,2.114 14.313,5.884c-0,0 39.958,39.54 39.958,39.54l79.44,13.019c0.879,0.144 1.569,0.83 1.717,1.708l6.625,39.151c0.169,0.999 -0.406,1.975 -1.361,2.312l-12.687,4.476c-0.552,0.195 -1.16,0.149 -1.676,-0.127c-0.516,-0.276 -0.892,-0.757 -1.037,-1.324c-3.411,-13.418 -15.581,-23.354 -30.052,-23.354c-17.095,-0 -30.978,13.865 -31.005,30.953c-0.002,1.069 -0.808,1.948 -1.845,2.066l0.006,-0l-0.686,0.069l-159.765,0Zm158.184,-4.166l-157.511,-0c-1.077,-18.442 -16.397,-33.089 -35.11,-33.089c-15.377,0 -28.462,9.889 -33.237,23.648c-0.1,0.288 -0.197,0.579 -0.289,0.87l-2.815,-0.048l-57.044,-0c0,-0 0,-52.132 0,-52.132c0,0 116.555,0 116.555,0c1.004,0 1.866,-0.716 2.048,-1.704l7.829,-42.272c0.11,-0.597 0.63,-1.031 1.237,-1.033c0,-0 0,-0 0,-0c14.343,-0.051 80.135,-0.281 98.208,-0.281c4.262,0 8.352,1.682 11.382,4.68c-0,-0 40.431,40.008 40.431,40.008c0.307,0.304 0.702,0.505 1.129,0.575l78.626,12.885c0,-0 6.084,35.954 6.084,35.954c0,-0 -8.954,3.159 -8.954,3.159c-4.582,-14.103 -17.837,-24.309 -33.458,-24.309c-18.712,0 -34.031,14.644 -35.111,33.089Zm-90.389,-96.095c0,-1.15 -0.933,-2.083 -2.083,-2.083l-54.002,-0c-1.048,-0 -1.933,0.779 -2.066,1.819l-4.216,32.955c-0.076,0.594 0.107,1.192 0.503,1.641c0.395,0.449 0.965,0.707 1.564,0.707l58.217,-0c1.15,-0 2.083,-0.933 2.083,-2.083l0,-32.956Zm8.916,-2.028c-1.149,0.002 -2.079,0.934 -2.079,2.083l-0,32.901c-0,1.15 0.933,2.083 2.083,2.083l58.366,-0c0.843,-0 1.603,-0.508 1.925,-1.286c0.323,-0.779 0.144,-1.675 -0.452,-2.271l-32.955,-32.955c-0.392,-0.392 -0.923,-0.611 -1.478,-0.61l-25.41,0.055Zm2.088,4.162l22.466,-0.049c-0,0 28.787,28.787 28.787,28.787c-0,0 -51.254,0 -51.254,0l0.001,-28.738Zm-15.171,-0.05l0,28.788c0,0 -53.766,0 -53.766,0c-0,0 3.682,-28.788 3.682,-28.788l50.084,-0Z"/>
<text x="0" y="432" fill="#000000" font-size="5px" font-weight="bold" font-family="'Helvetica Neue', Helvetica, Arial-Unicode, Arial, Sans-serif">Created by Agan24</text><text x="0" y="437" fill="#000000" font-size="5px" font-weight="bold" font-family="'Helvetica Neue', Helvetica, Arial-Unicode, Arial, Sans-serif">from the Noun Project</text></svg>