<svg xmlns="http://www.w3.org/2000/svg" xmlns:xlink="http://www.w3.org/1999/xlink" xmlns:serif="http://www.serif.com/" viewBox="0 0 417 521.25" version="1.1" xml:space="preserve" style="" x="0px" y="0px" fill-rule="evenodd" clip-rule="evenodd" stroke-linejoin="round" stroke-miterlimit="2"><rect serif:id="Page 1" x="0" y="0" width="416.667" height="416.667" style="" fill="none"/><g serif:id="Page 1">
<path 
d="M96.053,221.27c-14.514,0 -26.298,11.784 -26.298,26.299c-0,14.514 11.784,26.298 26.298,26.298c14.515,0 26.299,-11.784 26.299,-26.298c-0,-14.515 -11.784,-26.299 -26.299,-26.299Zm228.531,0c-14.514,0 -26.298,11.784 -26.298,26.299c0,14.514 11.784,26.298 26.298,26.298c14.515,0 26.299,-11.784 26.299,-26.298c-0,-14.515 -11.784,-26.299 -26.299,-26.299Zm-228.531,4.167c12.215,0 22.132,9.917 22.132,22.132c-0,12.215 -9.917,22.131 -22.132,22.131c-12.215,0 -22.131,-9.916 -22.131,-22.131c-0,-12.215 9.916,-22.132 22.131,-22.132Zm228.531,0c12.215,0 22.132,9.917 22.132,22.132c0,12.215 -9.917,22.131 -22.132,22.131c-12.214,0 -22.131,-9.916 -22.131,-22.131c-0,-12.215 9.917,-22.132 22.131,-22.132Zm32.055,33.458l-1.741,-0.028c-0.659,0 -1.279,-0.312 -1.672,-0.841c-0.393,-0.528 -0.512,-1.212 -0.322,-1.843c0.822,-2.728 1.263,-5.62 1.263,-8.614c-0,-16.48 -13.379,-29.859 -29.859,-29.859c-16.479,0 -29.858,13.379 -29.858,29.859c-0,2.656 0.347,5.233 0.999,7.684c0.168,0.631 0.031,1.304 -0.372,1.819c-0.402,0.514 -1.022,0.81 -1.675,0.8c0,-0 -2.53,-0.041 -2.53,-0.041l-164.443,-0c-0.646,-0 -1.256,-0.301 -1.651,-0.813c-0.394,-0.512 -0.528,-1.178 -0.363,-1.803c0.646,-2.442 0.989,-5.004 0.989,-7.646c0,-16.48 -13.379,-29.859 -29.858,-29.859c-16.48,0 -29.859,13.379 -29.859,29.859c0,1.15 -0.932,2.083 -2.083,2.083l-24.02,0c-7.728,0 -11.73,-2.082 -13.84,-4.019c-2.298,-2.11 -2.639,-4.257 -2.697,-4.657c-0.012,-0.088 -0.018,-0.147 -0.018,-0.147c0,0 2.074,1.882 2.074,1.882l-2.083,-2.084l-0,-19.874c-0,-7.048 4.855,-10.076 7.453,-11.192c0,0 0,-25.592 0,-25.592c0,-2.243 0.891,-4.395 2.478,-5.982c1.587,-1.587 3.739,-2.478 5.983,-2.478c-0,-0 13.211,-0 13.211,-0c4.374,-1.881 43.94,-18.907 57.005,-24.735c5.634,-2.514 21.482,-4.953 40.037,-6.44c27.627,-2.215 61.276,-2.387 75.731,1.872c23.843,7.025 49.299,23.548 73.155,36.574c63.103,3.762 94.784,28.956 94.784,28.956c0.499,0.395 0.79,0.996 0.79,1.633l0,37.267c0,0.933 -0.62,1.753 -1.519,2.006l-21.934,6.175c-0.184,0.052 -0.374,0.078 -0.565,0.078l-12.99,0c1.151,0 2.083,-0.932 2.083,-2.083c0,-0.831 -0.486,-1.548 -1.189,-1.882l-0.012,0.053c0.951,0.772 -0.365,3.077 -0.77,3.735l-0.112,0.177Zm0.937,-4.166c0.496,-2.309 0.757,-4.704 0.757,-7.16c0,-18.779 -15.246,-34.025 -34.025,-34.025c-18.779,-0 -34.025,15.246 -34.025,34.025c0,2.08 0.187,4.117 0.546,6.095l-161.804,-0c0.359,-1.978 0.546,-4.015 0.546,-6.095c-0,-18.779 -15.246,-34.025 -34.025,-34.025c-18.08,-0 -32.885,14.131 -33.962,31.941l-22,0c-10.863,0 -12.267,-4.469 -12.395,-4.998c-0.003,-0.01 -0.003,-19.734 -0.003,-19.734c0,-6.274 5.854,-7.7 5.854,-7.7c0.938,-0.224 1.6,-1.062 1.6,-2.027l-0,-27.057c-0,-1.138 0.452,-2.231 1.257,-3.036c0.806,-0.805 1.898,-1.257 3.037,-1.257l13.64,-0c0.283,-0 0.563,-0.058 0.823,-0.17c0,0 43.602,-18.749 57.45,-24.927c5.44,-2.427 20.76,-4.656 38.673,-6.092c27.075,-2.17 60.054,-2.458 74.22,1.716c23.723,6.989 49.031,23.539 72.756,36.459c0.27,0.147 0.569,0.233 0.876,0.251c56.119,3.245 86.91,23.75 92.107,27.5c0.001,0.002 0.001,34.646 0.001,34.646c0,-0 -20.138,5.67 -20.138,5.67l-11.766,-0Zm-167.308,-98.054c-1.035,0.138 -1.808,1.021 -1.808,2.065l0,24.075c0,1.151 0.933,2.084 2.083,2.084l67.761,-0c1.151,-0 2.084,-0.933 2.084,-2.084l-0,-4.659c-0,-0.598 -0.257,-1.166 -0.704,-1.562c-0,0 -18.718,-16.483 -39.204,-18.76c-21.325,-2.369 -30.212,-1.159 -30.212,-1.159Zm-10.071,1.774c-0,-0.563 -0.228,-1.102 -0.632,-1.494c-0.403,-0.393 -0.948,-0.605 -1.511,-0.589c-11.905,0.339 -32.998,3.169 -47.072,5.201c-9.428,1.303 -18.229,5.463 -25.22,11.922c-0.001,0.001 -0.003,0.003 -0.005,0.005c-1.989,1.837 -2.648,4.704 -1.662,7.225c0.986,2.521 3.416,4.18 6.123,4.18c21.992,-0 67.895,-0 67.895,-0c1.151,-0 2.084,-0.933 2.084,-2.084l-0,-24.366Zm12.43,2.208c3.481,-0.204 12.148,-0.375 27.393,1.318c17.03,1.893 32.738,14.257 36.2,17.141c0.001,0.002 0.001,1.616 0.001,1.616c0,0 -63.594,0 -63.594,0l0,-20.075Zm-16.597,-0.043l-0,20.118c-0,0 -65.812,0 -65.812,0c-0.991,0 -1.882,-0.607 -2.243,-1.531c-0.361,-0.923 -0.119,-1.973 0.609,-2.646l0.006,-0.006c6.367,-5.882 14.384,-9.671 22.971,-10.856c0.005,-0 0.009,-0.001 0.013,-0.001c13.123,-1.895 32.411,-4.501 44.456,-5.078l-0,0Z"
/>
</g><text x="0" y="432" fill="#000000" font-size="5px" font-weight="bold" font-family="'Helvetica Neue', Helvetica, Arial-Unicode, Arial, Sans-serif">Created by Agan24</text><text x="0" y="437" fill="#000000" font-size="5px" font-weight="bold" font-family="'Helvetica Neue', Helvetica, Arial-Unicode, Arial, Sans-serif">from the Noun Project</text></svg>