<svg xmlns="http://www.w3.org/2000/svg" version="1.1" viewBox="-5.0 -10.0 110.0 135.0">
 <path d="m34.742 32.242c-3.1445-0.015626-6.2891-0.007813-9.4375 0.027343l-6.8945 0.007813c-1.0625-0.003906-2.5-0.10156-3.5078 0.035156-0.53516 0.070312-1.1289 0.28906-1.5273 0.66016-0.42188 0.39844-0.71094 0.9375-1 1.4336-1.5547 2.6914-2.5156 5.6523-3.1289 8.6914-0.12891 0.64453-0.30859 1.3477-0.33984 2.0039 0.71484-0.011718 2.4375-0.17187 3.0156 0.13672 0.15234 0.17969 0.20703 0.38281 0.24219 0.61328 0.097657 0.60938 0.082032 2.7148 0.023438 3.3516-0.023438 0.24219-0.089844 0.58984-0.27344 0.76953-0.29687 0.29688-2.6133 0.13281-3.1836 0.16016-0.09375 0.72656-0.003907 1.4414 0.11328 2.1602l3.125-0.003907c0.66406-0.003906 1.4219-0.074218 2.0703 0.054688 0.19922 0.039062 0.35938 0.15625 0.51563 0.28516l-3.9023-0.003906c-0.70703 0-1.4609-0.054688-2.1602 0.03125-0.15234 0.019531-0.30469 0.039062-0.41797 0.15625-0.36328 0.37891-0.23438 1.3555-0.21094 1.8359 0.027344 0.44141 0.31641 1.7227 0.64453 1.9961 0.31641 0.26172 4.9141 1.7109 5.6328 1.8867-0.089844 0.76172-0.027344 1.3125-0.69922 1.8477-0.31641 0.25-1.0898 0.49609-1.1836 0.85938l0.035157 0.09375c0.26172 0.054688 0.62891-0.21484 0.84375-0.35547 0.48828-0.32422 1.0898-0.80859 1.2188-1.4102 0.042969-0.22266 0.027343-0.46484 0.023437-0.69141 0.18359 0.027344 0.375 0.066406 0.5625 0.066406 0.26172 0.039063 0.51172 0.046875 0.77344 0.046875 0.003906 0.84375 0.007812 1.8828 0.33984 2.668 0.015624 0.066406 0.035156 0.13281 0.050781 0.19531 0.019531 0.066407 0.039062 0.12891 0.058593 0.19531 0.019532 0.066406 0.042969 0.12891 0.0625 0.19531 0.019532 0.0625 0.042969 0.125 0.066407 0.19141 0.023437 0.0625 0.046875 0.125 0.070312 0.1875 0.023438 0.0625 0.050781 0.125 0.078125 0.1875 0.023438 0.0625 0.050782 0.125 0.082032 0.18359 0.027343 0.0625 0.054687 0.125 0.082031 0.18359 0.027343 0.0625 0.058593 0.125 0.089843 0.18359s0.0625 0.12109 0.09375 0.17969c0.03125 0.058594 0.066407 0.11719 0.10156 0.17578 0.03125 0.058594 0.066406 0.11719 0.10156 0.17188 0.03125 0.058593 0.070312 0.11719 0.10547 0.17578 0.035156 0.054688 0.074219 0.11328 0.10938 0.16797 0.039063 0.054687 0.078125 0.10938 0.11719 0.16797 0.039062 0.054687 0.078125 0.10937 0.11719 0.16406 0.042969 0.050781 0.085938 0.10547 0.125 0.16016 0.042969 0.050782 0.085938 0.10156 0.12891 0.15234 0.042969 0.054688 0.085938 0.10547 0.12891 0.15625 0.046875 0.050781 0.089843 0.10156 0.13672 0.14844 0.046874 0.050781 0.09375 0.10156 0.13672 0.14844 0.046875 0.050781 0.097656 0.097656 0.14453 0.14453 0.046874 0.050782 0.097656 0.09375 0.14844 0.14062 0.046875 0.046875 0.097656 0.089844 0.14844 0.13672 0.046876 0.042969 0.097657 0.089844 0.15234 0.13672 0.050782 0.042969 0.10156 0.085937 0.15625 0.12891 0.050782 0.039063 0.10547 0.082031 0.16016 0.125 0.050782 0.039063 0.10547 0.078125 0.15625 0.12109 0.054688 0.039062 0.11328 0.078125 0.16797 0.11719 0.054688 0.035156 0.11328 0.074219 0.16797 0.11328 0.054688 0.035156 0.11328 0.070312 0.16797 0.10937 0.058593 0.035157 0.11719 0.070313 0.17578 0.10547 2.0273 1.1875 4.168 1.5117 6.4492 0.91406 2.2031-0.57422 3.9219-1.9648 5.0547-3.9258 0.16406-0.28125 0.33203-0.58203 0.4375-0.89062 0.39453-0.53906 0.28516-1.3086 0.57031-1.8633l0.12109-0.03125 1.125-0.023437c0.0625-0.89453 0.10938-1.75 0.10938-2.6484 0.26953 0.49219 0.59375 0.94922 1.0742 1.2539 0.089844 0.058593 0.17969 0.10937 0.27344 0.15234s0.1875 0.085938 0.28906 0.11719c0.097656 0.03125 0.19531 0.058593 0.30078 0.078125 0.10156 0.019531 0.20312 0.03125 0.30859 0.039062 1.8984 0.10156 3.8984-0.011718 5.8125-0.011718l11.707 0.003906h6.8594c0.69922 0 2.3867 0.097656 2.9805-0.0625l1.7773-1.457 2.4414 1.3555c0.10938 1.2344 0.25391 2.4375 0.8125 3.5586 0.03125 0.0625 0.058594 0.125 0.09375 0.18359 0.03125 0.058593 0.0625 0.11719 0.097656 0.17578 0.03125 0.0625 0.066407 0.12109 0.10156 0.17969 0.03125 0.058593 0.066406 0.11719 0.10156 0.17578 0.039062 0.054687 0.074218 0.11328 0.11328 0.17188 0.039062 0.054687 0.074219 0.10938 0.11328 0.16797 0.039062 0.054688 0.078125 0.10938 0.11719 0.16406 0.042968 0.054687 0.082031 0.10938 0.125 0.16406 0.042968 0.050781 0.082031 0.10547 0.125 0.16016 0.042968 0.050781 0.085937 0.10156 0.12891 0.15234 0.046875 0.054687 0.089844 0.10547 0.13672 0.15625 0.046876 0.050781 0.09375 0.10156 0.14063 0.14844 0.042968 0.050781 0.089843 0.10156 0.14062 0.14844 0.046876 0.046876 0.09375 0.09375 0.14453 0.14063 0.046875 0.050781 0.097656 0.097656 0.14844 0.14062 0.046875 0.046876 0.097657 0.09375 0.15234 0.13672 0.050781 0.042969 0.10156 0.089844 0.15625 0.13281 0.050781 0.042968 0.10156 0.085937 0.15625 0.12891 0.054687 0.039062 0.10938 0.082031 0.16016 0.125 0.054688 0.039062 0.10938 0.078125 0.16406 0.12109 0.058594 0.039062 0.11328 0.074218 0.16797 0.11328 0.058594 0.039063 0.11328 0.074219 0.17188 0.11328 0.058593 0.035156 0.11328 0.070313 0.17187 0.10938 0.058594 0.035157 0.11719 0.066407 0.17578 0.10156s0.11719 0.066406 0.17969 0.097656c0.058594 0.03125 0.12109 0.066406 0.17969 0.09375 0.0625 0.03125 0.12109 0.0625 0.18359 0.089844 0.058594 0.03125 0.12109 0.058594 0.18359 0.085937 0.0625 0.03125 0.125 0.058594 0.1875 0.082031 0.0625 0.027344 0.125 0.054688 0.1875 0.078126 0.0625 0.023437 0.12891 0.050781 0.19141 0.070312 0.0625 0.023438 0.12891 0.046875 0.19141 0.066406 2 0.67578 4.4961 0.53516 6.3867-0.41016 1.8438-0.92578 3.4883-2.6367 4.1406-4.6172 0.58594-1.1055 0.50391-2.7734 0.42188-3.4414 0.69531-0.14844 1.3828-0.38672 2.0586-0.59766-0.37109-1.4688-0.84766-2.8984-1.4844-4.2773-0.14453-0.24609-0.042968-0.011718-0.66797-1.6562h6.7812c0.050781-0.33594 0.070312-0.66406 0.074218-1.0039-0.32422-0.054688-0.64844-0.054688-0.97266-0.058594 0.30469-0.90625 0.40234-1.9805 0.027344-2.8828-0.089844-0.21094-0.33594-0.50391-0.36328-0.71094 0-0.13672 0.011719-0.22266 0.039063-0.38672-0.015625-0.14063-0.12891-0.31641-0.42188-0.49219-0.37891-0.22656-0.64844-0.74219-0.95312-1.0664-0.37109-0.40234-0.85156-0.61328-1.3672-0.76172-1.8359-0.52344-4.4102-0.74219-6.3438-1.0078-2.9062-0.39062-5.8203-0.73047-8.7422-1.0156-2-0.21094-4.0195-0.46875-6.0312-0.52344-0.57031-0.54297-1.0703-1.168-1.5977-1.7578-0.92578-1.0312-1.918-1.9961-2.8867-2.9922-1.1758-1.2188-3.2969-3.6953-4.7422-4.3789-1.3438-0.64062-2.9883-0.74609-4.457-0.82422-2.6172-0.11328-5.2344-0.19141-7.8555-0.22656-3.1445-0.058593-6.293-0.097656-9.4375-0.10937zm6.9414 1.9648c0.34375-0.003906 0.6875 0.003907 1.0273 0.03125 0.25 0.019531 0.46875 0.070313 0.68359 0.20703 0.30469 0.19922 0.45312 0.49219 0.52344 0.83984 0.16406 0.83594 0.035156 1.8477 0.042969 2.7109 0.007812 1.2305 0.125 2.7188 0.003906 3.9141-0.027344 0.28516-0.078125 0.55859-0.25 0.79297-0.23047 0.31641-0.50391 0.38672-0.875 0.45312l-7.2617-0.007812c-1.3125 0.003906-2.6719 0.085937-3.9727 0-0.29297-0.019532-0.59766-0.070313-0.86328-0.19141-0.30469-0.14453-0.5625-0.51562-0.66406-0.82812-0.1875-0.58594-0.14844-5.543-0.078125-6.3828 0.023438-0.26172 0.054688-0.5625 0.17578-0.79688 0.21484-0.41406 0.58594-0.57812 1.0078-0.71094 0.65625-0.054687 1.3438-0.011719 2-0.011719l3.8672 0.003907 3.6016-0.007813c0.33984 0 0.6875-0.011718 1.0312-0.015625zm-15.086 0.023438c0.4375-0.003907 0.54688 0.042969 0.86719 0.09375 0.27344 0.039062 0.59375 0.11719 0.80078 0.30078 0.33984 0.30469 0.36719 0.62109 0.38281 1.0586 0.039062 1.0625 0 2.1445 0.003906 3.207 0.003906 0.80469 0.11328 1.7695-0.035156 2.5586-0.035157 0.1875-0.17969 0.375-0.3125 0.50781-0.21484 0.21875-0.51953 0.38672-0.81641 0.46484-0.8125 0.22266-2.0898 0.066406-3.0195 0.0625l-5.3672 0.007813c-0.90625 0-1.8711 0.070312-2.7734-0.039063-0.30859-0.035156-0.60547-0.097656-0.85156-0.30078-0.3125-0.25391-0.55469-0.67969-0.58594-1.0859-0.023437-0.25781 0.039063-0.50391 0.12109-0.75 0.30469-0.91016 2.1562-4.5 2.7695-5.1992 0.53906-0.60938 1.2539-0.76172 2.0234-0.82031 0.015624 0 0.027343-0.003906 0.042968-0.003906 0.59766-0.050781 1.2188-0.023438 1.8164-0.023438l3.125 0.003907c0.57031-0.003907 1.082-0.042969 1.8086-0.042969zm26.402 0.13672c0.59375-0.003907 1.1875 0.011718 1.7656 0.082031 0.64844 0.082031 1.4688 0.25391 2.0156 0.62891 0.39844 0.27344 0.76562 0.64062 1.1094 0.98047 0.33203 0.32812 3.3125 3.4688 4.0117 4.3125 0-0.003906 0-0.007813-0.003906-0.011719 0.40625 0.50781 1.6562 1.7617 1.8789 2.1602 0.074218 0.14062 0.10156 0.25 0.054687 0.40625-0.14453 0.19531-0.32422 0.26172-0.55859 0.30859-0.70703 0.13281-1.5703 0.039063-2.293 0.039063l-4.1914-0.007813-6.2812-0.003906c-1.1289 0.003906-2.3086 0.074219-3.4297-0.011719-0.29297-0.023438-0.57812-0.10547-0.81641-0.27344-0.39844-0.28906-0.60938-0.74609-0.67969-1.2188-0.14062-0.9375-0.035156-1.9883-0.035156-2.9375-0.003906-1.0938-0.089844-2.2734 0.023437-3.3555 0.027344-0.24609 0.070313-0.49609 0.22266-0.69531 0.23438-0.29297 0.58984-0.33984 0.9375-0.37109 1.4961-0.042969 3-0.003907 4.4961-0.007813 0.58203 0 1.1758-0.019531 1.7734-0.023437zm-4.5352 10.789c0.75781-0.003906 1.5117 0.003906 2.2656 0.003906 0.003906 0.29688 0.035156 0.625-0.023438 0.91797l-0.082031 0.042969c-1.1953-0.03125-2.3867-0.003906-3.5781-0.03125-0.042969-0.31641-0.12109-0.63281 0.0625-0.91797 0.45312-0.011719 0.90625-0.015625 1.3555-0.015625zm-38.07 0.61328c-0.38672-0.003906-0.79688 0.039063-1.1641 0.050781-0.14062 0.15234-0.28125 0.32422-0.28516 0.54297-0.003906 0.078125 0.039063 0.125 0.074219 0.19141 0.49219 0.34766 1.6484 0.16406 2.25 0.16406 0.125-0.074219 0.19531-0.14062 0.24219-0.28906 0.039062-0.10547 0.015625-0.22266-0.039063-0.32422-0.10547-0.18359-0.36719-0.27344-0.5625-0.30469-0.16406-0.023437-0.33594-0.03125-0.51562-0.03125zm-0.13281 1.3047c-0.46875 0.007812-0.94922 0.03125-1.2227 0.03125-0.007812 0.14453-0.03125 0.27734 0.042969 0.41016 0.21484 0.18359 1.9531 0.082031 2.3516 0.085937 0.015625-0.16406 0.046875-0.30469-0.027344-0.45312-0.21875-0.070313-0.67578-0.082032-1.1445-0.074219zm73.18 0.29688c1.7305 0.023437 3.3516 0.039062 5.0859 0.12109 0.41406 1.0195 0.69922 1.9492 0.80859 3.0391-0.91406 0.003906-3.5156 0.019531-4.2969-0.17188-0.066406-0.015625-0.12891-0.035156-0.19141-0.058594-0.058594-0.023437-0.12109-0.050781-0.17969-0.082031-0.058594-0.03125-0.11719-0.0625-0.17188-0.10156-0.054688-0.039063-0.10547-0.078126-0.15625-0.125-0.67969-0.60938-0.83203-1.7617-0.89844-2.6211zm-73.164 0.57812c-0.48047 0.007812-0.96875 0.035156-1.2148 0.050781-0.015625 0.16016-0.039062 0.28906 0.039062 0.43359 0.24219 0.10547 1.9805 0.070312 2.3203 0.019531 0.035156-0.15625 0.066406-0.26953 0.03125-0.42969-0.21875-0.0625-0.69531-0.078126-1.1758-0.074219zm0.23828 0.87109c-0.45703-0.003906-0.96875 0.027344-1.1953 0.03125-0.12891 0.015626-0.1875 0-0.27734 0.10156-0.003907 0.15234-0.007813 0.17188 0.074219 0.29688 0.48437 0.27344 1.5039 0.12891 2.0703 0.12109 0.125-0.058594 0.14062-0.070313 0.21875-0.18359 0.003906-0.14453 0.003906-0.15234-0.074219-0.27344-0.13672-0.070312-0.46094-0.09375-0.81641-0.09375zm54.855 2.5898c0.73438-0.003906 1.4688 0 2.1953 0.03125-0.17969 0.33594-0.34766 0.67969-0.55469 1-7.4922 0.19922-15.008 0.11328-22.508 0.11328-1.3477 0-11.988-0.058594-12.348 0.089843-0.28906-0.35156-0.50781-0.78906-0.73828-1.1797l23.891-0.019532 7.8672-0.019531c0.73047-0.003906 1.4648-0.015625 2.1953-0.015625zm19.965 1.2773c-0.38672 0-0.77344 0-1.1562 0.003906 0.61328 1.2852 1.1992 2.582 1.6445 3.9414 0.12891 0.40234 0.66016 2.5547 0.8125 2.7031 0.011719 0.011718 0.027343 0.023437 0.039062 0.03125 0.43359 0.097656 3.4727-0.23047 3.8438-0.45313 0.19531-0.11719 0.31641-0.27344 0.36719-0.49609 0.027343-0.12891 0.042969-0.25781 0.058593-0.38672 0.003907-0.015625 0.011719-0.035156 0.019532-0.050781 0.13672-0.34375 0.37891-0.44141 0.60156-0.71484 0.25781-0.30859 0.33594-1.1523 0.27344-1.543l-0.12891-0.10156c0.054687-0.15625 0.17187-0.16406 0.23828-0.28516 0.16016-0.28125 0.23047-1.7578 0.078125-2.0508-0.11719-0.23438-0.38281-0.38672-0.625-0.44922-0.79297-0.21484-1.7852-0.11719-2.6055-0.125-1.1523-0.015626-2.3086-0.023438-3.4609-0.023438zm-61.477 2.0469c1.0742-0.007813 2.0312 0.24219 2.957 0.89062 1.0078 0.71094 1.6289 1.8008 1.8359 3.0117 0.015625 0.078125 0.023437 0.16016 0.035156 0.24219 0.011719 0.078125 0.015625 0.16016 0.023438 0.24219 0.003906 0.078125 0.011718 0.16406 0.011718 0.24219 0 0.082031 0.003906 0.16406 0 0.24609s-0.007812 0.16406-0.015625 0.24219c-0.003906 0.082032-0.011719 0.16406-0.023437 0.24609-0.007813 0.082032-0.019532 0.16016-0.035156 0.24219-0.015626 0.082031-0.03125 0.16016-0.046876 0.24219l-0.058593 0.23438c-0.023438 0.078125-0.046875 0.15625-0.074219 0.23438s-0.050781 0.15625-0.082031 0.23047-0.0625 0.15234-0.09375 0.22656c-0.035157 0.074219-0.070313 0.14844-0.10547 0.21875-0.039062 0.074219-0.078125 0.14844-0.11719 0.21875-0.039062 0.070313-0.082031 0.14063-0.125 0.21094-0.046874 0.066406-0.089843 0.13281-0.13672 0.20312-0.78125 1.082-1.918 1.6836-3.2148 1.8984-1.1875 0.074219-2.3203-0.097656-3.3086-0.80078-1.0586-0.75391-1.8047-1.8789-2.0195-3.1641-0.011719-0.078125-0.019531-0.15625-0.03125-0.23438-0.007813-0.074219-0.011719-0.15234-0.019531-0.23047-0.003906-0.078125-0.007813-0.15625-0.007813-0.23438v-0.23047c0.003907-0.078125 0.007813-0.15625 0.015625-0.23438 0.007813-0.074218 0.015625-0.15234 0.023438-0.22656 0.011718-0.078125 0.023437-0.15625 0.039062-0.23047 0.015625-0.078125 0.027344-0.15234 0.046875-0.22656 0.019531-0.078124 0.039063-0.15234 0.058594-0.22656s0.046875-0.14844 0.070313-0.22266c0.023437-0.074219 0.050781-0.14844 0.078124-0.21875 0.03125-0.070313 0.058594-0.14062 0.089844-0.21484 0.035156-0.070312 0.066406-0.13672 0.10156-0.20703 0.039062-0.070313 0.074219-0.13672 0.10938-0.20312 0.039062-0.070313 0.082031-0.13672 0.12109-0.19922 0.042968-0.066406 0.085937-0.12891 0.13281-0.19141 0.78516-1.0977 1.9805-1.793 3.2969-2.0117 0.16016-0.011719 0.31641-0.015625 0.46875-0.015625zm51.871 0.27734c0.078125-0.003907 0.15234 0 0.23047 0.003906 0.078124 0 0.15234 0.007813 0.23047 0.015625 0.074219 0.003906 0.15234 0.015625 0.22656 0.027344 0.074219 0.007812 0.15234 0.019531 0.22656 0.035156s0.14844 0.03125 0.22266 0.050781c1.1367 0.28125 2.2969 1.0391 2.9062 2.0586 0.68359 1.0273 0.91016 2.2695 0.66016 3.4805-0.23047 1.1445-0.87891 2.1133-1.8594 2.7539-1.1719 0.76953-2.5703 1.082-3.9492 0.78516-1.1523-0.25391-2.2305-0.96094-2.8594-1.9648-0.60938-0.96094-0.8125-2.1172-0.64062-3.2344 0-0.14063 0.023438-0.26563 0.054688-0.39844 0.28125-1.1719 1.1211-2.3047 2.1484-2.9297 0.066406-0.039062 0.13281-0.078124 0.19922-0.11719 0.066406-0.035156 0.13672-0.070313 0.20703-0.10547 0.066406-0.03125 0.13672-0.0625 0.20703-0.09375 0.070313-0.027344 0.14062-0.054687 0.21484-0.082031 0.070312-0.027344 0.14453-0.050781 0.21875-0.074219 0.070312-0.023437 0.14453-0.042968 0.21875-0.0625 0.074219-0.019531 0.14844-0.039062 0.22266-0.050781 0.078125-0.015625 0.15234-0.03125 0.22656-0.042969 0.074219-0.011718 0.15234-0.019531 0.22656-0.027344 0.078125-0.011718 0.15234-0.015624 0.23047-0.019531 0.078125-0.007812 0.15234-0.007812 0.23047-0.007812zm-51.766 0.64062c-0.14453 0.003906-0.27734 0.019531-0.38672 0.050781-0.13672 0.042969-0.27344 0.10547-0.35156 0.23438-0.082031 0.13672-0.039062 0.35938-0.03125 0.51172 0.074219 0.085937 0.13672 0.15625 0.23438 0.21484 0.27734 0.16016 0.76172 0.13672 1.0586 0.046876 0.31641-0.097657 0.41406-0.23828 0.56641-0.52734-0.050782-0.16016-0.0625-0.25391-0.21484-0.34766-0.21484-0.125-0.56641-0.19141-0.875-0.18359zm51.812 0.23828c-0.14453 0.003906-0.27734 0.019531-0.38281 0.050781-0.14062 0.042969-0.27734 0.10547-0.35547 0.23438-0.078124 0.13672-0.039062 0.35547-0.03125 0.51172 0.074219 0.085938 0.13672 0.15625 0.23438 0.21484 0.27734 0.15625 0.76172 0.13281 1.0586 0.042968 0.31641-0.097656 0.41406-0.23437 0.56641-0.52344-0.050782-0.16016-0.0625-0.25391-0.21484-0.34766-0.21484-0.125-0.56641-0.19141-0.875-0.18359zm-49.926 0.40625c-0.078124 0.011719-0.14453 0.10547-0.19531 0.16016-0.054688 0.42969 0.007812 0.65234 0.28906 0.99609 0.19141 0.23828 0.42578 0.46484 0.65234 0.66406 0.21484-0.089844 0.44141-0.17188 0.64844-0.28516l0.035156-0.09375c-0.039062-0.25391-0.21094-0.48047-0.37109-0.67578-0.22266-0.28125-0.67578-0.75391-1.043-0.76562h-0.015626zm-3.5625 0.015625c-0.41016 0.023438-0.72266 0.34766-0.98047 0.64062-0.23438 0.25781-0.49609 0.58594-0.57812 0.92969l0.023437 0.042969c0.22656 0.10156 0.45703 0.19922 0.6875 0.29688 0.34375-0.35547 0.75391-0.67969 1.0508-1.0664 0.15625-0.20703 0.12891-0.32422 0.09375-0.56641-0.10547-0.14844-0.125-0.20703-0.29688-0.27734zm55.391 0.22266c-0.082032-0.003906-0.15625 0.10156-0.21094 0.16016-0.054688 0.42969 0.007812 0.65234 0.28906 0.99609 0.19141 0.23828 0.42578 0.46094 0.65234 0.66406 0.21875-0.089844 0.44141-0.17188 0.64844-0.28516l0.035156-0.09375c-0.035156-0.25391-0.21094-0.48047-0.37109-0.67969-0.22266-0.27734-0.67578-0.75391-1.043-0.76172zm-3.5781 0.015625c-0.41016 0.023438-0.72266 0.34766-0.98047 0.64062-0.23438 0.25781-0.49609 0.58203-0.58203 0.92578l0.027344 0.046874c0.22656 0.10156 0.45703 0.19922 0.6875 0.29688 0.34375-0.35547 0.75391-0.67969 1.0508-1.0703 0.15625-0.20703 0.12891-0.32031 0.09375-0.5625-0.10547-0.15234-0.125-0.20703-0.29688-0.27734zm-50.277 0.59375c-0.66797 0.10547-1.2578 0.43359-1.6602 0.98828-0.37109 0.50781-0.53906 1.1797-0.4375 1.7969 0.10547 0.625 0.49609 1.1875 1.0117 1.5469 0.41797 0.29297 0.95703 0.46875 1.4727 0.42188 0.6875-0.10156 1.25-0.36719 1.668-0.94141 0.023438-0.035156 0.046875-0.070312 0.070313-0.10547 0.023437-0.035156 0.046875-0.070312 0.066406-0.10547 0.019531-0.039063 0.042969-0.074219 0.0625-0.10938 0.015625-0.039063 0.035156-0.078125 0.054687-0.11328 0.015626-0.039063 0.03125-0.078126 0.046876-0.11719 0.015624-0.039062 0.03125-0.078125 0.042968-0.11719 0.011719-0.042968 0.027344-0.082031 0.039063-0.12109 0.007812-0.039063 0.019531-0.082031 0.03125-0.12109 0.007812-0.039063 0.015625-0.082031 0.023437-0.125 0.007813-0.039063 0.011719-0.082031 0.019532-0.125 0.003906-0.039063 0.007812-0.082031 0.011718-0.125 0.003906-0.039063 0.003906-0.082031 0.007813-0.125 0-0.039063-0.003907-0.082031-0.003907-0.125s-0.003906-0.082031-0.003906-0.125c-0.003906-0.042969-0.011718-0.082031-0.015625-0.125-0.003906-0.042969-0.011719-0.082031-0.019531-0.12109-0.007812-0.039062-0.015625-0.078125-0.023438-0.11719-0.007812-0.039063-0.019531-0.074219-0.027343-0.11328-0.011719-0.039062-0.023438-0.074218-0.035157-0.10937-0.015624-0.039063-0.03125-0.074219-0.042968-0.10938-0.015625-0.039062-0.03125-0.074218-0.046875-0.10937-0.015625-0.035157-0.035157-0.070313-0.050781-0.10547-0.019532-0.035157-0.039063-0.066407-0.058594-0.10156-0.019532-0.035156-0.039063-0.066406-0.0625-0.097656-0.023438-0.035156-0.042969-0.066406-0.066406-0.097656-0.023438-0.03125-0.046876-0.0625-0.070313-0.09375-0.027344-0.027344-0.050781-0.058594-0.078125-0.085938s-0.050781-0.058594-0.082031-0.085937c-0.027344-0.027344-0.054688-0.054688-0.085938-0.082031-0.027343-0.023438-0.054687-0.050782-0.085937-0.074219-0.03125-0.023438-0.0625-0.050781-0.09375-0.074219-0.03125-0.019531-0.0625-0.042969-0.097656-0.066406-0.43359-0.28125-0.96094-0.40234-1.4805-0.38281zm51.816 0.23828c-0.67188 0.10547-1.2617 0.43359-1.6641 0.98828-0.37109 0.50781-0.53906 1.1797-0.43359 1.8008 0.10156 0.62109 0.49219 1.1836 1.0039 1.543 0.42188 0.29297 0.96094 0.46875 1.4766 0.42578 0.6875-0.10547 1.25-0.37109 1.668-0.94922 0.023438-0.03125 0.046875-0.066406 0.070313-0.10156 0.023437-0.035156 0.046875-0.070313 0.066406-0.10547 0.019531-0.039063 0.042969-0.074219 0.0625-0.10938 0.015625-0.039062 0.035156-0.078125 0.054687-0.11328 0.015626-0.039063 0.03125-0.082031 0.046876-0.11719 0.015624-0.039062 0.03125-0.078125 0.042968-0.11719 0.011719-0.042969 0.027344-0.082032 0.039063-0.12109 0.007812-0.039062 0.019531-0.082031 0.03125-0.12109 0.007812-0.042968 0.015625-0.082031 0.023437-0.125 0.007813-0.042968 0.011719-0.082031 0.019532-0.125 0.003906-0.039062 0.007812-0.082031 0.011718-0.125 0.003906-0.039062 0.003906-0.082031 0.007813-0.125 0-0.042968-0.003907-0.082031-0.003907-0.125 0-0.042968-0.003906-0.082031-0.003906-0.125-0.003906-0.042968-0.011718-0.082031-0.015625-0.125-0.003906-0.042968-0.011719-0.082031-0.019531-0.125-0.007812-0.039062-0.015625-0.074218-0.023438-0.11328-0.007812-0.039063-0.019531-0.074219-0.027343-0.11328-0.011719-0.039063-0.023438-0.074219-0.035157-0.10938-0.015624-0.039063-0.027343-0.074219-0.042968-0.10938-0.015625-0.039063-0.03125-0.074219-0.046875-0.10938-0.015625-0.035157-0.035157-0.070313-0.050781-0.10547-0.019532-0.035156-0.039063-0.066406-0.058594-0.10156-0.019532-0.035157-0.039063-0.066407-0.0625-0.097657-0.023438-0.035156-0.042969-0.066406-0.066406-0.097656-0.023438-0.03125-0.046876-0.0625-0.070313-0.089844-0.027344-0.03125-0.050781-0.0625-0.078125-0.09375-0.027344-0.027343-0.050781-0.054687-0.078125-0.082031-0.03125-0.027344-0.058594-0.054688-0.085937-0.082031-0.03125-0.023438-0.058594-0.050781-0.089844-0.074219s-0.058594-0.050781-0.09375-0.074219c-0.03125-0.019531-0.0625-0.042969-0.097656-0.066406-0.43359-0.28125-0.96094-0.40234-1.4766-0.38281zm-48.223 1.2266c-0.042969 0-0.085938 0.011719-0.125 0.015625-0.21484 0.085938-0.39844 0.13281-0.49609 0.36328-0.13281 0.32422-0.14062 0.98047 0.011719 1.3086 0.027344 0.058594 0.074218 0.10938 0.11328 0.15625 0.17969 0.027344 0.32031 0.125 0.47266 0.21484 0.011719-0.007813 0.023438-0.015625 0.03125-0.023438 0.19531-0.20703 0.25-0.78516 0.26953-1.0625 0.015626-0.25781 0.035157-0.75391-0.16797-0.94141-0.027344-0.027344-0.066406-0.03125-0.10938-0.03125zm-6.9453 0.125c-0.26172 0.70312-0.17578 1.3906 0.11719 2.0625l0.26953-0.13281c0.19141-0.15234 0.33594-0.30469 0.47656-0.50391 0.003906-0.36719 0.074218-0.88281-0.15625-1.1875-0.16406-0.21875-0.46094-0.22266-0.70703-0.23828zm58.758 0.11328c-0.042969 0-0.085938 0.011719-0.125 0.015625-0.21484 0.085938-0.39844 0.13281-0.49609 0.36328-0.13281 0.32422-0.14062 0.98047 0.011719 1.3086 0.027344 0.058594 0.074218 0.10938 0.11328 0.15625 0.17969 0.027344 0.32422 0.125 0.47656 0.21484 0.011718-0.007812 0.019531-0.015625 0.03125-0.023438 0.19141-0.20703 0.24609-0.78516 0.26562-1.0625 0.015626-0.25781 0.035157-0.75391-0.16406-0.94141-0.03125-0.027344-0.070312-0.03125-0.11328-0.03125zm-6.9453 0.125c-0.26172 0.69922-0.17578 1.3867 0.11719 2.0625l0.26562-0.13281c0.19531-0.15234 0.33984-0.30469 0.48047-0.50391 0.003906-0.36719 0.074218-0.88281-0.15625-1.1875-0.16406-0.21875-0.46094-0.22266-0.70703-0.23828zm-45.73 2.1562c-0.070313 0.003906-0.14844 0.011719-0.23047 0.027344-0.21875 0.23047-0.48047 0.46484-0.66797 0.71875-0.046875 0.32422-0.078125 0.61328-0.007812 0.9375 0.058593-0.007812 0.066406-0.003906 0.13281-0.027344 0.58594-0.21875 1.0977-0.91406 1.3633-1.4531-0.20703-0.14062-0.37891-0.20312-0.58984-0.20312zm-5.0234 0.039063c-0.11328 0.007812-0.21094 0.066406-0.32422 0.12891-0.066406 0.089844-0.13281 0.17969-0.20312 0.26562 0.37891 0.51562 0.79688 1 1.4141 1.2305 0.050781-0.089844 0.097656-0.17969 0.12891-0.27734 0.085937-0.25391 0.054687-0.4375-0.070313-0.67188-0.17187-0.32031-0.46094-0.57031-0.82031-0.66406-0.042969-0.007813-0.085938-0.015626-0.125-0.011719zm56.836 0.19922c-0.070313 0.003906-0.14453 0.011718-0.22656 0.027343-0.22266 0.23047-0.48438 0.46484-0.67188 0.72266-0.046875 0.32031-0.078125 0.60937-0.007812 0.93359 0.058593-0.007812 0.066406-0.007812 0.13281-0.03125 0.58594-0.21484 1.0977-0.91406 1.3633-1.4492-0.20703-0.14062-0.37891-0.20312-0.58984-0.20312zm-5.0234 0.039062c-0.11328 0.007812-0.21094 0.066406-0.32422 0.12891-0.066406 0.089844-0.13281 0.17969-0.20312 0.26562 0.37891 0.51562 0.79688 1 1.4141 1.2305 0.050781-0.089844 0.097656-0.18359 0.12891-0.28125 0.085937-0.25391 0.054687-0.43359-0.070313-0.66797-0.17187-0.32031-0.46094-0.57031-0.81641-0.66406-0.046875-0.007813-0.089844-0.015625-0.12891-0.011719zm-49.309 0.75781c-0.125 0-0.24609 0.023438-0.36328 0.070313-0.30469 0.11719-0.39453 0.28516-0.51953 0.58203 0.042968 0.14453 0.054687 0.22266 0.1875 0.30469 0.35156 0.21875 1 0.16016 1.375 0.035156 0.14062-0.046875 0.22656-0.10547 0.32812-0.21484-0.007813-0.027344-0.019531-0.058594-0.03125-0.085937-0.089844-0.28516-0.24609-0.46875-0.51953-0.59375-0.14844-0.070313-0.30469-0.10156-0.45703-0.097657zm51.812 0.23828c-0.125 0-0.24609 0.023437-0.35938 0.070312-0.30859 0.11719-0.39844 0.28516-0.52344 0.57812 0.042968 0.14844 0.054687 0.22656 0.1875 0.30859 0.35156 0.21875 1 0.16016 1.3711 0.03125 0.14453-0.046875 0.23047-0.10156 0.33203-0.21094-0.007813-0.027344-0.019531-0.058594-0.03125-0.089844-0.089844-0.28125-0.24609-0.46484-0.52344-0.58984-0.14453-0.070312-0.30078-0.10156-0.45312-0.097656z"/>
<text x="0.0" y="117.5" font-size="5.0" font-weight="bold" font-family="Arbeit Regular, Helvetica, Arial-Unicode, Arial, Sans-serif" fill="#000000">Created by PizzaOtter</text><text x="0.0" y="122.5" font-size="5.0" font-weight="bold" font-family="Arbeit Regular, Helvetica, Arial-Unicode, Arial, Sans-serif" fill="#000000">from Noun Project</text></svg>