<svg width="226" height="226" viewBox="0 0 226 226" fill="none" xmlns="http://www.w3.org/2000/svg">
<circle cx="113" cy="113" r="113" fill="#F98A34"/>
<circle cx="113" cy="113" r="92.4271" fill="#F98A34" stroke="white" stroke-width="1.45806" stroke-dasharray="10.21 10.21"/>
<circle cx="112.999" cy="113" r="67.8" fill="white"/>
<path 
d="M110.342 111.177C110.342 112.003 110.67 112.795 111.254 113.379C111.838 113.963 112.63 114.291 113.455 114.291C114.281 114.291 115.073 113.963 115.657 113.379C116.241 112.795 116.569 112.003 116.569 111.177C116.569 110.352 116.241 109.56 115.657 108.976C115.073 108.392 114.281 108.064 113.455 108.064C112.63 108.064 111.838 108.392 111.254 108.976C110.67 109.56 110.342 110.352 110.342 111.177Z" stroke="#F98A34" stroke-width="6.22715" stroke-linecap="round" stroke-linejoin="round"/>
<path 
d="M113.455 95.6094C110.376 95.6094 107.366 96.5224 104.806 98.233C102.245 99.9437 100.25 102.375 99.0718 105.22C97.8935 108.064 97.5852 111.195 98.1859 114.214C98.7865 117.234 100.269 120.008 102.446 122.185C104.624 124.363 107.398 125.845 110.417 126.446C113.437 127.047 116.568 126.738 119.412 125.56C122.257 124.382 124.688 122.386 126.399 119.826C128.109 117.266 129.022 114.256 129.022 111.177" 
stroke="#F98A34" stroke-width="6.22715" stroke-linecap="round" stroke-linejoin="round"/>
<path 
d="M116.568 83.3263C110.796 82.6787 104.965 83.8409 99.882 86.6522C94.799 89.4634 90.7152 93.7847 88.1956 99.0183C85.6759 104.252 84.8449 110.139 85.8175 115.866C86.7901 121.592 89.5182 126.875 93.6244 130.983C97.7307 135.092 103.012 137.823 108.738 138.798C114.464 139.773 120.352 138.945 125.587 136.428C130.822 133.911 135.145 129.83 137.959 124.748C140.773 119.667 141.938 113.836 141.293 108.064" 
stroke="#F98A34" stroke-width="6.22715" stroke-linecap="round" stroke-linejoin="round"/>
<path 
d="M122.796 101.836V92.4958L132.137 83.155V92.4958H141.477L132.137 101.836H122.796ZM122.796 101.836L113.455 111.177" 
stroke="#F98A34" stroke-width="6.22715" stroke-linecap="round" stroke-linejoin="round"/>
</svg>
