<svg width="40" height="40" viewBox="0 0 40 40" fill="none" xmlns="http://www.w3.org/2000/svg">
<g clip-path="url(#clip0_962_6269)">
<path d="M20 10C14.4833 10 10 14.4833 10 20C10 25.5167 14.4833 30 20 30C25.5167 30 30 25.5167 30 20C30 19.1 29.8667 18.25 29.65 17.4167L32.2667 14.8C32.95 16.4 33.3333 18.15 33.3333 20C33.3333 27.35 27.35 33.3333 20 33.3333C12.65 33.3333 6.66667 27.35 6.66667 20C6.66667 12.65 12.65 6.66667 20 6.66667C21.85 6.66667 23.6 7.05 25.2 7.73333L22.5833 10.35C21.7667 10.1333 20.9 10 20 10ZM36 15.3833C36.4333 16.85 36.6667 18.4 36.6667 20C36.6667 29.1833 29.1833 36.6667 20 36.6667C10.8167 36.6667 3.33333 29.1833 3.33333 20C3.33333 10.8167 10.8167 3.33333 20 3.33333C21.6 3.33333 23.15 3.56667 24.6167 4L27.2333 1.38333C24.9833 0.5 22.55 0 20 0C8.96667 0 0 8.96667 0 20C0 31.0333 8.96667 40 20 40C31.0333 40 40 31.0333 40 20C40 17.45 39.5 15 38.6167 12.7667L36 15.3833ZM19.55 13.3833C16.0833 13.6167 13.3333 16.4833 13.3333 20C13.3333 23.5167 16.3167 26.6667 20 26.6667C23.6833 26.6667 26.3833 23.9167 26.6167 20.45L24.7167 22.35C22.7667 24.3 19.6 24.3 17.65 22.35C15.7 20.4 15.7 17.2333 17.65 15.2833L19.55 13.3833ZM18.8167 18.8333L21.1667 21.1833L30.6833 11.6667H35L40 6.66667H33.3333V0L28.3333 5V9.31667L18.8167 18.8333Z" fill="#F98A34"/>
</g>
<defs>
<clipPath id="clip0_962_6269">
<rect width="40" height="40" fill="white"/>
</clipPath>
</defs>
</svg>
