<svg width="40" height="40" viewBox="0 0 40 40" fill="none" xmlns="http://www.w3.org/2000/svg">
<g clip-path="url(#clip0_962_6259)">
<path d="M35 15H25C22.25 15 20 17.25 20 20V40H40V20C40 17.25 37.75 15 35 15ZM35 31.6667H25V28.3333H35V31.6667ZM35 25H25V21.6667H35V25ZM16.6667 6.66667H13.3333C11.5 6.66667 10 5.16667 10 3.33333C10 1.5 11.5 0 13.3333 0H16.6667C18.5 0 20 1.5 20 3.33333C20 5.16667 18.5 6.66667 16.6667 6.66667ZM25 3.33333C27.7667 3.33333 30 5.56667 30 8.33333V11.6667H25C20.4 11.6667 16.6667 15.4 16.6667 20V40H0V8.33333C0 5.56667 2.23333 3.33333 5 3.33333H6.66667C6.66667 7.01667 9.65 10 13.3333 10H16.6667C20.35 10 23.3333 7.01667 23.3333 3.33333H25Z" fill="#F98A34"/>
</g>
<defs>
<clipPath id="clip0_962_6259">
<rect width="40" height="40" fill="white"/>
</clipPath>
</defs>
</svg>
